<svg width="686" height="398" viewBox="0 0 686 398" fill="none" xmlns="http://www.w3.org/2000/svg">
<g clip-path="url(#clip0_56_138)">
<path d="M119.792 353.215L162.082 351.132L163.915 388.338C164.001 390.077 163.392 391.778 162.224 393.068C161.055 394.357 159.422 395.13 157.683 395.216L128.501 396.653C126.763 396.739 125.062 396.13 123.772 394.962C122.483 393.793 121.71 392.16 121.624 390.422L119.792 353.215Z" fill="#0ECC4E"/>
<path d="M148.52 296.182L128.118 297.187C110.803 298.04 97.4585 312.768 98.3114 330.082C99.1642 347.396 113.892 360.741 131.206 359.888L151.608 358.883C168.923 358.03 182.268 343.303 181.415 325.988C180.562 308.674 165.834 295.329 148.52 296.182Z" fill="#0ECC4E"/>
<path d="M120.453 315.386C128.25 315.386 134.57 309.065 134.57 301.269C134.57 293.472 128.25 287.152 120.453 287.152C112.657 287.152 106.336 293.472 106.336 301.269C106.336 309.065 112.657 315.386 120.453 315.386Z" fill="#EEEEEE"/>
<path d="M156.509 313.613C164.306 313.613 170.626 307.293 170.626 299.496C170.626 291.7 164.306 285.379 156.509 285.379C148.713 285.379 142.393 291.7 142.393 299.496C142.393 307.293 148.713 313.613 156.509 313.613Z" fill="#EEEEEE"/>
<path d="M120.453 312.06C126.413 312.06 131.244 307.229 131.244 301.269C131.244 295.309 126.413 290.478 120.453 290.478C114.493 290.478 109.662 295.309 109.662 301.269C109.662 307.229 114.493 312.06 120.453 312.06Z" fill="#0ECC4E"/>
<path d="M120.453 308.653C124.531 308.653 127.837 305.347 127.837 301.269C127.837 297.191 124.531 293.885 120.453 293.885C116.375 293.885 113.069 297.191 113.069 301.269C113.069 305.347 116.375 308.653 120.453 308.653Z" fill="#141414"/>
<path d="M166.396 295.794L146.359 296.781L146.674 303.173L166.711 302.186L166.396 295.794Z" fill="#141414"/>
<path d="M134.196 317.207L132.553 326.412" stroke="#141414" stroke-width="2" stroke-miterlimit="10" stroke-linecap="round"/>
<path d="M144.401 316.703L146.938 325.697" stroke="#141414" stroke-width="2" stroke-miterlimit="10" stroke-linecap="round"/>
<path d="M125.641 333.088L138.79 338.407C139.215 338.575 139.671 338.652 140.128 338.632C140.585 338.613 141.032 338.497 141.441 338.293L154.452 331.69" stroke="#141414" stroke-width="2" stroke-miterlimit="10" stroke-linecap="round"/>
<path d="M155.337 356.927L155.335 356.935C154.238 361.002 156.646 365.188 160.714 366.285L167.851 368.209C171.918 369.306 176.104 366.898 177.201 362.83L177.203 362.823C178.3 358.755 175.891 354.569 171.824 353.472L164.687 351.548C160.62 350.451 156.434 352.859 155.337 356.927Z" fill="#0ECC4E"/>
<path d="M118.265 353.803L111.483 356.744C107.619 358.421 105.845 362.912 107.521 366.777L107.524 366.785C109.201 370.649 113.693 372.423 117.557 370.747L124.339 367.805C128.203 366.129 129.977 361.637 128.301 357.772L128.298 357.765C126.621 353.9 122.129 352.126 118.265 353.803Z" fill="#0ECC4E"/>
<path d="M122.905 379.569L116.7 379.879C112.16 380.106 108.663 383.971 108.89 388.512L108.954 389.796C109.181 394.337 113.046 397.834 117.587 397.607L123.791 397.296C128.332 397.069 131.828 393.205 131.601 388.664L131.537 387.379C131.31 382.839 127.445 379.342 122.905 379.569Z" fill="#0ECC4E"/>
<path d="M168.19 376.961L161.993 377.267C157.459 377.49 153.963 381.347 154.187 385.882L154.25 387.166C154.473 391.701 158.331 395.196 162.866 394.972L169.063 394.667C173.598 394.444 177.093 390.586 176.869 386.051L176.806 384.768C176.583 380.233 172.725 376.738 168.19 376.961Z" fill="#0ECC4E"/>
<path d="M577.953 84.1187H423.173C419.648 84.1187 416.79 86.9767 416.79 90.5022V124.859C416.79 128.384 419.648 131.242 423.173 131.242H577.953C581.479 131.242 584.337 128.384 584.337 124.859V90.5022C584.337 86.9767 581.479 84.1187 577.953 84.1187Z" fill="#FFDB00"/>
<path d="M140.538 197.305H61.1157C58.5468 197.305 56.4644 199.387 56.4644 201.956V239.777C56.4644 242.346 58.5468 244.428 61.1157 244.428H140.538C143.107 244.428 145.19 242.346 145.19 239.777V201.956C145.19 199.387 143.107 197.305 140.538 197.305Z" fill="#FFDB00"/>
<path d="M260.229 61.8378H105.45C101.924 61.8378 99.0664 64.6957 99.0664 68.2212V102.578C99.0664 106.103 101.924 108.961 105.45 108.961H260.229C263.755 108.961 266.613 106.103 266.613 102.578V68.2212C266.613 64.6957 263.755 61.8378 260.229 61.8378Z" fill="#FFDB00"/>
<path d="M441.934 0.5H287.154C283.628 0.5 280.771 3.35795 280.771 6.88342V41.2401C280.771 44.7655 283.628 47.6235 287.154 47.6235H441.934C445.459 47.6235 448.317 44.7655 448.317 41.2401V6.88342C448.317 3.35795 445.459 0.5 441.934 0.5Z" fill="#FFDB00"/>
<path d="M615.172 185.79H522.056C519.289 185.79 517.046 188.033 517.046 190.799V227.904C517.046 230.671 519.289 232.913 522.056 232.913H615.172C617.939 232.913 620.181 230.671 620.181 227.904V190.799C620.181 188.033 617.939 185.79 615.172 185.79Z" fill="#FFDB00"/>
<path d="M165.511 150.531H496.75C500.334 150.531 503.772 151.955 506.306 154.489C508.841 157.024 510.265 160.461 510.265 164.046V371.844H151.996V164.046C151.996 160.461 153.42 157.024 155.955 154.489C158.489 151.955 161.927 150.531 165.511 150.531Z" fill="#141414"/>
<path d="M169.732 160.801H492.562C494.272 160.801 495.912 161.481 497.122 162.69C498.331 163.899 499.01 165.539 499.01 167.25V361.55H163.283V167.201C163.296 165.499 163.981 163.871 165.189 162.673C166.397 161.474 168.03 160.801 169.732 160.801Z" fill="white"/>
<path d="M244.999 259.146L258.246 226.945H261.929L275.086 259.146H269.394L259.059 233.068H260.994L250.594 259.155L244.999 259.146ZM251.504 252.934V248.339H268.581V252.934H251.504Z" fill="#141414"/>
<path d="M279.307 259.146V226.945H284.592V259.146H279.307ZM282.942 259.146V254.316H291.407C293.436 254.362 295.442 253.871 297.221 252.893C298.876 251.962 300.232 250.581 301.132 248.909C302.098 247.09 302.582 245.055 302.539 242.997C302.584 240.951 302.09 238.929 301.108 237.134C300.189 235.477 298.83 234.106 297.18 233.174C295.414 232.201 293.423 231.71 291.407 231.751H282.942V226.92H291.545C293.772 226.897 295.983 227.311 298.05 228.14C299.996 228.921 301.769 230.076 303.271 231.539C304.756 232.995 305.939 234.731 306.751 236.646C308.399 240.728 308.399 245.29 306.751 249.372C305.951 251.299 304.773 253.046 303.287 254.511C301.801 255.976 300.037 257.129 298.099 257.902C296.053 258.726 293.865 259.14 291.659 259.122L282.942 259.146Z" fill="#141414"/>
<path d="M386.41 259.146V226.945H391.704V259.146H386.41ZM390.045 245.485V241.11H398.177C399.558 241.198 400.92 240.746 401.974 239.85C402.438 239.393 402.798 238.843 403.032 238.235C403.266 237.628 403.369 236.978 403.332 236.329C403.348 235.701 403.238 235.076 403.009 234.491C402.78 233.906 402.436 233.372 401.999 232.922C401.499 232.444 400.906 232.074 400.257 231.836C399.607 231.598 398.916 231.497 398.226 231.539H390.045V226.945H398.461C400.316 226.905 402.151 227.324 403.804 228.164C405.288 228.918 406.529 230.076 407.384 231.505C408.239 232.934 408.672 234.575 408.634 236.239C408.678 237.953 408.239 239.644 407.366 241.118C406.515 242.522 405.279 243.651 403.804 244.371C402.139 245.171 400.308 245.566 398.461 245.526L390.045 245.485ZM404.08 259.146L392.802 245.16L397.73 243.371L410.74 259.146H404.08Z" fill="#141414"/>
<path d="M244.999 295.479V266.839H249.699V295.479H244.999ZM248.252 295.479V291.186H255.782C257.59 291.225 259.376 290.787 260.962 289.917C262.431 289.088 263.637 287.862 264.442 286.38C265.296 284.76 265.724 282.949 265.686 281.118C265.725 279.305 265.287 277.514 264.418 275.922C263.599 274.449 262.389 273.23 260.921 272.401C259.349 271.535 257.576 271.097 255.782 271.133H248.252V266.839H255.904C257.88 266.819 259.842 267.187 261.677 267.921C263.409 268.617 264.987 269.648 266.32 270.954C267.642 272.245 268.693 273.788 269.411 275.491C270.885 279.117 270.885 283.176 269.411 286.803C268.704 288.52 267.659 290.078 266.337 291.383C265.016 292.688 263.445 293.713 261.718 294.398C259.896 295.129 257.948 295.497 255.985 295.479H248.252Z" fill="#141414"/>
<path d="M275.257 295.479V266.839H279.966V295.479H275.257ZM278.51 271.133V266.839H294.343V271.133H278.51ZM278.51 282.916V278.785H293.147V282.916H278.51ZM278.51 295.479V291.186H294.554V295.479H278.51Z" fill="#141414"/>
<path d="M306.646 295.894C304.653 295.951 302.676 295.53 300.88 294.666C299.221 293.78 297.769 292.552 296.619 291.064L299.815 287.868C300.547 288.959 301.51 289.875 302.637 290.551C303.917 291.238 305.357 291.569 306.808 291.511C308.142 291.58 309.465 291.236 310.598 290.527C311.045 290.236 311.409 289.835 311.655 289.362C311.902 288.889 312.022 288.36 312.004 287.827C312.041 286.988 311.782 286.162 311.273 285.493C310.739 284.864 310.076 284.357 309.329 284.005C308.469 283.587 307.581 283.231 306.67 282.94C305.702 282.623 304.735 282.273 303.759 281.875C302.811 281.493 301.918 280.99 301.1 280.378C300.282 279.763 299.616 278.967 299.156 278.053C298.63 276.913 298.379 275.665 298.424 274.41C298.376 272.876 298.811 271.365 299.669 270.092C300.519 268.888 301.687 267.945 303.043 267.368C304.543 266.724 306.161 266.403 307.792 266.424C309.541 266.397 311.272 266.775 312.85 267.53C314.246 268.202 315.48 269.167 316.469 270.36L313.305 273.548C312.594 272.702 311.728 272.001 310.752 271.482C309.803 271.019 308.758 270.788 307.703 270.807C306.529 270.739 305.362 271.04 304.369 271.669C303.975 271.938 303.657 272.304 303.445 272.731C303.233 273.158 303.134 273.633 303.157 274.109C303.125 274.88 303.389 275.634 303.897 276.215C304.451 276.787 305.111 277.246 305.841 277.565C306.709 277.957 307.596 278.304 308.5 278.606C309.467 278.931 310.435 279.305 311.403 279.712C312.358 280.112 313.253 280.643 314.062 281.289C314.885 281.948 315.551 282.781 316.013 283.729C316.539 284.926 316.79 286.227 316.745 287.534C316.792 288.691 316.571 289.843 316.1 290.901C315.629 291.959 314.92 292.894 314.029 293.633C312.175 295.138 309.728 295.894 306.646 295.894Z" fill="#141414"/>
<path d="M321.438 295.479V266.839H326.146V295.479H321.438Z" fill="#141414"/>
<path d="M345.271 295.894C343.358 295.903 341.463 295.513 339.709 294.747C337.988 293.999 336.43 292.922 335.123 291.576C333.81 290.213 332.765 288.616 332.041 286.868C331.279 285.047 330.895 283.092 330.911 281.118C330.898 279.164 331.282 277.227 332.041 275.426C332.767 273.678 333.821 272.085 335.147 270.734C336.475 269.382 338.063 268.311 339.815 267.587C341.65 266.826 343.619 266.442 345.605 266.457C347.776 266.438 349.925 266.888 351.907 267.774C353.801 268.615 355.472 269.887 356.786 271.49L353.59 274.686C352.731 273.471 351.556 272.515 350.191 271.921C348.752 271.275 347.19 270.948 345.613 270.962C343.802 270.922 342.013 271.369 340.433 272.255C338.963 273.094 337.764 274.335 336.977 275.833C336.163 277.492 335.74 279.315 335.74 281.163C335.74 283.011 336.163 284.834 336.977 286.494C337.762 287.98 338.93 289.229 340.36 290.112C341.812 290.994 343.483 291.447 345.182 291.421C346.886 291.465 348.576 291.108 350.118 290.381C351.475 289.7 352.585 288.611 353.289 287.266C354.07 285.686 354.45 283.937 354.395 282.176L357.339 284.298H345.109V280.004H359.266V280.663C359.372 283.607 358.749 286.532 357.453 289.177C356.345 291.332 354.609 293.101 352.476 294.251C350.249 295.39 347.772 295.955 345.271 295.894Z" fill="#141414"/>
<path d="M363.934 295.479V266.839H367.187L368.618 272.239V295.479H363.934ZM383.784 295.479L366.634 273.101L367.211 266.839L384.353 289.218L383.784 295.479ZM383.784 295.479L382.352 290.446V266.864H387.053V295.504L383.784 295.479Z" fill="#141414"/>
<path d="M400.681 295.894C398.686 295.951 396.707 295.53 394.908 294.666C393.251 293.779 391.802 292.552 390.655 291.064L393.851 287.868C394.583 288.959 395.546 289.875 396.672 290.551C397.952 291.238 399.393 291.569 400.844 291.511C402.178 291.58 403.501 291.236 404.633 290.527C405.079 290.235 405.443 289.833 405.689 289.361C405.935 288.888 406.056 288.36 406.04 287.827C406.076 286.988 405.817 286.162 405.308 285.493C404.772 284.866 404.11 284.359 403.365 284.005C402.505 283.587 401.616 283.231 400.706 282.94C399.73 282.623 398.762 282.273 397.794 281.875C396.847 281.493 395.953 280.99 395.135 280.378C394.317 279.763 393.652 278.967 393.192 278.053C392.665 276.913 392.415 275.665 392.46 274.41C392.412 272.876 392.847 271.365 393.704 270.092C394.555 268.888 395.723 267.945 397.079 267.368C398.578 266.724 400.196 266.403 401.828 266.424C403.574 266.398 405.302 266.776 406.878 267.53C408.277 268.2 409.515 269.165 410.504 270.36L407.309 273.548C406.597 272.702 405.731 272.001 404.755 271.482C403.806 271.019 402.761 270.788 401.706 270.807C400.532 270.739 399.366 271.04 398.372 271.669C397.978 271.939 397.66 272.304 397.448 272.731C397.236 273.158 397.137 273.633 397.16 274.109C397.13 274.86 397.386 275.596 397.876 276.166C398.429 276.739 399.09 277.197 399.819 277.516C400.687 277.908 401.575 278.256 402.478 278.557C403.446 278.882 404.414 279.256 405.381 279.663C406.336 280.063 407.231 280.594 408.04 281.24C408.863 281.898 409.527 282.731 409.984 283.68C410.517 284.876 410.77 286.177 410.724 287.486C410.771 288.643 410.549 289.796 410.077 290.854C409.604 291.912 408.893 292.847 408 293.584C406.211 295.138 403.763 295.894 400.681 295.894Z" fill="#141414"/>
<path d="M328.162 259.61C325.949 259.628 323.757 259.188 321.722 258.317C319.759 257.483 317.977 256.273 316.477 254.755C314.941 253.209 313.726 251.374 312.903 249.356C312.079 247.338 311.664 245.176 311.679 242.997C311.659 240.787 312.088 238.596 312.94 236.556C313.763 234.596 314.95 232.808 316.437 231.287C318.759 228.984 321.71 227.42 324.92 226.791C328.129 226.161 331.453 226.495 334.473 227.75C336.426 228.58 338.199 229.781 339.693 231.287C342.773 234.421 344.499 238.639 344.499 243.033C344.499 247.427 342.773 251.646 339.693 254.78C338.206 256.283 336.441 257.485 334.497 258.317C332.497 259.18 330.341 259.62 328.162 259.61ZM328.073 254.544C330.069 254.583 332.038 254.074 333.765 253.072C335.404 252.097 336.742 250.69 337.636 249.006C338.599 247.152 339.08 245.086 339.035 242.997C339.051 241.42 338.776 239.854 338.221 238.378C337.715 237.025 336.941 235.789 335.945 234.743C334.968 233.716 333.784 232.906 332.472 232.369C331.061 231.807 329.552 231.53 328.032 231.555C326.038 231.515 324.07 232.018 322.34 233.011C320.706 233.971 319.369 235.364 318.478 237.036C317.511 238.878 317.027 240.934 317.071 243.013C317.057 244.608 317.332 246.192 317.884 247.689C318.381 249.045 319.147 250.287 320.136 251.34C321.119 252.365 322.304 253.173 323.617 253.714C325.031 254.291 326.547 254.573 328.073 254.544Z" fill="#141414"/>
<path d="M364.69 259.61C362.477 259.627 360.284 259.187 358.25 258.317C354.236 256.553 351.072 253.289 349.435 249.222C347.798 245.155 347.819 240.609 349.492 236.556C350.312 234.594 351.499 232.806 352.988 231.287C355.312 228.98 358.266 227.413 361.479 226.784C364.692 226.154 368.019 226.49 371.041 227.75C372.997 228.578 374.773 229.779 376.27 231.287C378.566 233.653 380.121 236.637 380.745 239.875C381.37 243.112 381.035 246.461 379.783 249.51C378.136 253.478 374.997 256.641 371.041 258.317C369.036 259.183 366.874 259.624 364.69 259.61ZM364.601 254.544C366.597 254.585 368.566 254.075 370.293 253.072C371.933 252.099 373.272 250.692 374.163 249.006C375.127 247.152 375.608 245.086 375.562 242.997C375.579 241.42 375.303 239.854 374.749 238.378C374.242 237.025 373.468 235.789 372.472 234.743C371.497 233.714 370.313 232.904 369 232.369C367.588 231.807 366.079 231.53 364.56 231.555C362.566 231.515 360.598 232.018 358.868 233.011C357.236 233.973 355.899 235.366 355.005 237.036C354.041 238.878 353.56 240.935 353.606 243.013C353.593 244.608 353.868 246.192 354.42 247.689C354.911 249.048 355.678 250.291 356.672 251.34C357.652 252.364 358.834 253.173 360.144 253.714C361.558 254.291 363.074 254.573 364.601 254.544Z" fill="#141414"/>
<path d="M331.919 243.046C331.922 243.561 331.826 244.072 331.635 244.55C331.445 245.01 331.169 245.429 330.821 245.786C330.47 246.132 330.056 246.408 329.602 246.599C329.134 246.799 328.63 246.902 328.122 246.9C327.613 246.903 327.109 246.804 326.64 246.609C326.17 246.413 325.745 246.125 325.389 245.762C325.04 245.407 324.763 244.987 324.576 244.526C324.186 243.561 324.186 242.482 324.576 241.517C324.768 241.058 325.043 240.638 325.389 240.281C325.739 239.933 326.154 239.657 326.609 239.468C327.083 239.269 327.592 239.167 328.105 239.167C328.619 239.167 329.128 239.269 329.602 239.468C330.057 239.657 330.471 239.933 330.821 240.281C331.165 240.64 331.44 241.059 331.635 241.517C331.827 242.003 331.924 242.522 331.919 243.046Z" fill="#FFDB00"/>
<path d="M357.786 244.997C357.793 244.607 357.859 244.221 357.981 243.851C358.099 243.483 358.254 243.129 358.445 242.794C358.641 242.454 358.867 242.133 359.12 241.834C359.25 241.679 359.388 241.541 359.526 241.395C359.665 241.248 359.827 241.127 359.99 240.996C360.64 240.486 361.379 240.1 362.169 239.858C362.959 239.616 363.784 239.514 364.609 239.557C365.428 239.592 366.236 239.762 366.999 240.061C367.731 240.356 368.416 240.756 369.032 241.248C369.618 241.736 370.131 242.306 370.553 242.94C370.76 243.254 370.94 243.586 371.09 243.932C371.25 244.285 371.364 244.656 371.431 245.038C370.675 244.826 370.024 244.615 369.382 244.428C368.74 244.241 368.154 244.07 367.585 243.916C367.016 243.761 366.471 243.655 365.959 243.566C365.456 243.478 364.948 243.421 364.438 243.395C363.94 243.363 363.44 243.363 362.942 243.395C362.422 243.445 361.906 243.526 361.397 243.639C360.82 243.777 360.252 243.951 359.697 244.16C359.112 244.395 358.494 244.664 357.786 244.997Z" fill="#FFDB00"/>
<path d="M136.253 371.552H526.016V382.839C526.015 384.714 525.644 386.57 524.925 388.302C524.206 390.033 523.152 391.606 521.824 392.93C520.496 394.254 518.92 395.304 517.187 396.018C515.453 396.732 513.596 397.098 511.72 397.093H150.508C148.635 397.093 146.78 396.725 145.05 396.008C143.319 395.291 141.747 394.24 140.423 392.916C139.098 391.591 138.048 390.019 137.331 388.289C136.614 386.558 136.245 384.703 136.245 382.83V371.552H136.253Z" fill="#141414"/>
<g opacity="0.3">
<path d="M371.626 382.017H290.642C290.223 382.018 289.811 381.902 289.453 381.683C289.096 381.463 288.806 381.148 288.618 380.773L285.658 374.821C285.489 374.476 285.412 374.095 285.431 373.713C285.451 373.33 285.567 372.959 285.77 372.634C285.972 372.309 286.254 372.04 286.588 371.854C286.923 371.667 287.299 371.569 287.682 371.568H374.611C374.994 371.569 375.37 371.667 375.705 371.854C376.039 372.04 376.321 372.309 376.523 372.634C376.726 372.959 376.842 373.33 376.862 373.713C376.881 374.095 376.804 374.476 376.636 374.821L373.659 380.773C373.471 381.15 373.18 381.466 372.821 381.686C372.462 381.906 372.048 382.021 371.626 382.017Z" fill="#969696"/>
</g>
<path d="M451.098 115.548V98.1948H453.448V115.548H451.098ZM452.676 115.548V113.531H457.921C458.353 113.557 458.785 113.491 459.19 113.338C459.595 113.186 459.963 112.949 460.271 112.645C460.541 112.36 460.753 112.025 460.892 111.657C461.032 111.29 461.097 110.899 461.084 110.506C461.093 109.976 460.964 109.451 460.71 108.986C460.477 108.516 460.12 108.119 459.677 107.839C459.161 107.552 458.576 107.409 457.986 107.424H452.692V105.4H457.636C458.367 105.44 459.086 105.205 459.653 104.741C459.908 104.494 460.107 104.195 460.235 103.863C460.363 103.532 460.417 103.176 460.393 102.822C460.41 102.463 460.346 102.104 460.205 101.773C460.064 101.442 459.851 101.147 459.58 100.911C458.991 100.446 458.254 100.212 457.506 100.252H452.627V98.2029H457.547C458.529 98.1682 459.504 98.3778 460.385 98.8128C461.091 99.1654 461.684 99.7105 462.094 100.385C462.504 101.06 462.715 101.837 462.702 102.627C462.716 103.501 462.448 104.356 461.938 105.066C461.359 105.807 460.585 106.371 459.702 106.692L459.897 105.944C460.928 106.279 461.839 106.91 462.515 107.758C463.144 108.577 463.474 109.587 463.45 110.62C463.456 111.48 463.222 112.325 462.775 113.06C462.303 113.813 461.634 114.423 460.84 114.824C459.879 115.292 458.819 115.521 457.75 115.491L452.676 115.548Z" fill="black"/>
<path d="M466.377 115.548V103.667H468.622V115.548H466.377ZM468.622 108.79L467.809 108.392C467.742 107.1 468.111 105.822 468.858 104.765C469.218 104.316 469.68 103.959 470.207 103.724C470.733 103.489 471.307 103.383 471.883 103.415C472.441 103.408 472.994 103.516 473.509 103.733C474.032 103.969 474.494 104.322 474.859 104.765L473.379 106.294C473.155 106.043 472.877 105.845 472.566 105.717C472.229 105.597 471.874 105.539 471.517 105.546C471.138 105.533 470.76 105.598 470.407 105.738C470.054 105.878 469.734 106.089 469.467 106.359C469.172 106.688 468.945 107.072 468.8 107.49C468.655 107.907 468.594 108.349 468.622 108.79Z" fill="black"/>
<path d="M480.575 115.792C479.531 115.809 478.504 115.527 477.616 114.979C476.737 114.442 476.02 113.678 475.542 112.767C475.04 111.792 474.778 110.712 474.778 109.616C474.778 108.52 475.04 107.439 475.542 106.465C476.026 105.555 476.741 104.79 477.616 104.245C478.503 103.694 479.531 103.412 480.575 103.432C481.423 103.413 482.261 103.606 483.015 103.993C483.722 104.363 484.32 104.912 484.748 105.586C485.176 106.259 485.42 107.033 485.455 107.831V111.409C485.413 112.216 485.167 113 484.739 113.686C484.316 114.35 483.724 114.889 483.023 115.247C482.265 115.628 481.424 115.815 480.575 115.792ZM480.95 113.67C481.455 113.689 481.959 113.597 482.426 113.401C482.893 113.204 483.31 112.907 483.649 112.531C484.349 111.727 484.715 110.685 484.674 109.62C484.69 108.882 484.528 108.151 484.202 107.489C483.905 106.901 483.452 106.406 482.893 106.058C482.289 105.722 481.609 105.546 480.917 105.546C480.225 105.546 479.545 105.722 478.941 106.058C478.367 106.405 477.9 106.903 477.591 107.498C477.257 108.143 477.089 108.861 477.103 109.587C477.088 110.322 477.256 111.048 477.591 111.702C477.904 112.294 478.374 112.789 478.949 113.133C479.554 113.492 480.246 113.678 480.95 113.67ZM484.527 115.548V112.344L484.95 109.441L484.527 106.571V103.667H486.804V115.548H484.527Z" fill="black"/>
<path d="M490.082 115.548V103.667H492.326V115.548H490.082ZM498.457 115.548V108.652C498.491 107.831 498.198 107.031 497.644 106.424C497.361 106.134 497.02 105.907 496.643 105.757C496.266 105.607 495.862 105.538 495.457 105.554C494.888 105.538 494.326 105.675 493.83 105.952C493.369 106.212 492.987 106.591 492.724 107.05C492.452 107.548 492.315 108.109 492.326 108.677L491.399 108.148C491.385 107.309 491.593 106.482 492.001 105.749C492.401 105.065 492.98 104.503 493.676 104.123C494.419 103.702 495.261 103.489 496.115 103.505C496.959 103.491 497.787 103.726 498.498 104.18C499.175 104.628 499.733 105.233 500.124 105.944C500.517 106.651 500.721 107.446 500.718 108.254V115.637L498.457 115.548Z" fill="black"/>
<path d="M508.785 115.792C507.751 115.809 506.734 115.527 505.857 114.979C504.986 114.436 504.273 113.673 503.792 112.767C503.29 111.792 503.028 110.712 503.028 109.616C503.028 108.52 503.29 107.439 503.792 106.465C504.278 105.559 504.989 104.795 505.857 104.245C506.733 103.694 507.751 103.411 508.785 103.432C509.632 103.416 510.47 103.608 511.224 103.993C511.924 104.359 512.522 104.892 512.965 105.546C513.411 106.227 513.663 107.017 513.696 107.831V111.409C513.66 112.218 513.41 113.004 512.973 113.686C512.545 114.348 511.95 114.887 511.249 115.247C510.484 115.627 509.638 115.815 508.785 115.792ZM509.159 113.67C509.838 113.687 510.508 113.513 511.092 113.166C511.677 112.819 512.151 112.314 512.46 111.71C512.771 111.053 512.932 110.335 512.932 109.608C512.932 108.881 512.771 108.163 512.46 107.506C512.158 106.914 511.699 106.417 511.135 106.066C510.531 105.73 509.85 105.554 509.159 105.554C508.467 105.554 507.787 105.73 507.183 106.066C506.613 106.408 506.148 106.9 505.841 107.489C505.505 108.142 505.337 108.869 505.353 109.604C505.339 110.34 505.507 111.069 505.841 111.726C506.148 112.322 506.616 112.821 507.191 113.165C507.789 113.51 508.469 113.684 509.159 113.67ZM515.054 115.548H512.786V112.344L513.208 109.441L512.786 106.571V97.6906H515.054V115.548Z" fill="black"/>
<path d="M519.657 101.334C519.467 101.34 519.277 101.306 519.101 101.235C518.924 101.163 518.765 101.056 518.632 100.919C518.5 100.782 518.396 100.621 518.328 100.443C518.259 100.266 518.227 100.076 518.234 99.8862C518.228 99.6987 518.261 99.5119 518.329 99.3372C518.397 99.1626 518.501 99.0035 518.632 98.8698C518.907 98.6035 519.274 98.4546 519.657 98.4546C520.039 98.4546 520.407 98.6035 520.681 98.8698C520.813 99.0035 520.916 99.1626 520.985 99.3372C521.053 99.5119 521.085 99.6987 521.08 99.8862C521.086 100.076 521.054 100.266 520.986 100.443C520.917 100.621 520.814 100.782 520.681 100.919C520.549 101.056 520.389 101.163 520.213 101.235C520.036 101.306 519.847 101.34 519.657 101.334ZM518.51 115.589V103.667H520.779V115.548L518.51 115.589Z" fill="black"/>
<path d="M524.105 115.548V103.667H526.357V115.548H524.105ZM532.481 115.548V108.652C532.499 108.246 532.437 107.839 532.297 107.457C532.157 107.074 531.944 106.723 531.668 106.424C531.385 106.133 531.044 105.904 530.667 105.755C530.29 105.605 529.885 105.536 529.48 105.554C528.912 105.537 528.35 105.674 527.854 105.952C527.393 106.212 527.01 106.591 526.748 107.05C526.475 107.548 526.338 108.109 526.349 108.677L525.422 108.148C525.409 107.309 525.616 106.482 526.024 105.749C526.425 105.065 527.004 104.503 527.699 104.123C528.442 103.702 529.285 103.488 530.139 103.505C530.985 103.49 531.816 103.725 532.53 104.18C533.206 104.628 533.764 105.233 534.156 105.944C534.548 106.651 534.753 107.446 534.749 108.254V115.637L532.481 115.548Z" fill="black"/>
<path d="M542.735 115.345C541.712 115.36 540.704 115.092 539.823 114.572C538.967 114.051 538.262 113.314 537.782 112.433C537.277 111.491 537.02 110.437 537.034 109.368C537.015 108.307 537.27 107.26 537.774 106.327C538.254 105.453 538.955 104.721 539.807 104.204C540.681 103.671 541.686 103.389 542.71 103.391C543.572 103.376 544.424 103.565 545.198 103.944C545.899 104.291 546.493 104.822 546.914 105.481C547.342 106.178 547.582 106.973 547.614 107.79V110.945C547.579 111.756 547.332 112.544 546.898 113.23C546.476 113.889 545.883 114.421 545.182 114.767C544.425 115.154 543.585 115.352 542.735 115.345ZM542.735 120.769C541.613 120.796 540.5 120.565 539.482 120.094C538.574 119.666 537.792 119.01 537.213 118.191L538.685 116.719C539.143 117.317 539.733 117.802 540.409 118.134C541.153 118.476 541.965 118.643 542.783 118.622C543.831 118.675 544.859 118.329 545.662 117.654C546.019 117.328 546.301 116.927 546.486 116.481C546.672 116.034 546.757 115.552 546.735 115.068V112.116L547.134 109.441L546.735 106.79V103.667H548.988V115.052C549.004 116.106 548.722 117.143 548.175 118.044C547.641 118.904 546.878 119.597 545.971 120.045C544.964 120.536 543.855 120.784 542.735 120.769ZM543.157 113.222C543.839 113.24 544.513 113.074 545.109 112.743C545.657 112.429 546.106 111.967 546.402 111.409C546.715 110.784 546.871 110.091 546.857 109.392C546.872 108.696 546.716 108.006 546.402 107.384C546.103 106.821 545.652 106.353 545.101 106.034C544.509 105.7 543.837 105.531 543.157 105.546C542.467 105.531 541.785 105.7 541.181 106.034C540.622 106.354 540.161 106.821 539.848 107.384C539.514 107.991 539.345 108.675 539.36 109.368C539.348 110.065 539.516 110.754 539.848 111.368C540.16 111.942 540.628 112.415 541.198 112.734C541.797 113.066 542.473 113.234 543.157 113.222Z" fill="black"/>
<path d="M129.138 93.267V75.9138H130.764L138.083 87.9895H137.009L144.328 75.9138H145.954V93.267H143.604V80.0366L144.165 80.1911L138.383 89.7215H136.708L130.959 80.1911L131.488 80.0447V93.2751L129.138 93.267Z" fill="black"/>
<path d="M154.542 93.5109C153.495 93.528 152.465 93.2459 151.574 92.6977C150.7 92.1559 149.984 91.3929 149.5 90.4859C148.998 89.5114 148.736 88.4311 148.736 87.3349C148.736 86.2386 148.998 85.1583 149.5 84.1838C149.989 83.2778 150.703 82.5132 151.574 81.9638C152.464 81.4128 153.495 81.1304 154.542 81.1507C155.389 81.131 156.228 81.3239 156.981 81.7118C157.691 82.0783 158.291 82.6268 158.72 83.3011C159.148 83.9755 159.39 84.7515 159.421 85.5499V89.136C159.386 89.9435 159.142 90.728 158.713 91.4129C158.289 92.0752 157.697 92.6138 156.997 92.9742C156.235 93.3527 155.392 93.537 154.542 93.5109ZM154.916 91.3885C155.421 91.407 155.925 91.3147 156.391 91.118C156.858 90.9214 157.276 90.6251 157.615 90.2501C158.315 89.4455 158.682 88.4044 158.64 87.3389C158.652 86.6016 158.491 85.8717 158.168 85.2084C157.871 84.6184 157.414 84.1228 156.851 83.7772C156.258 83.4267 155.58 83.2492 154.891 83.2649C154.192 83.2495 153.502 83.4297 152.899 83.7854C152.328 84.1347 151.861 84.632 151.549 85.2247C151.215 85.8697 151.047 86.5881 151.061 87.3145C151.046 88.0488 151.214 88.7754 151.549 89.4288C151.865 90.022 152.337 90.5171 152.915 90.86C153.521 91.2163 154.213 91.3992 154.916 91.3885ZM158.494 93.267V90.0631L158.916 87.16L158.494 84.2895V81.3865H160.762V93.267H158.494Z" fill="black"/>
<path d="M164.039 93.267V81.3865H166.292V93.267H164.039ZM166.292 86.5095L165.438 86.111C165.371 84.8187 165.74 83.5415 166.487 82.4843C166.848 82.0357 167.311 81.6794 167.837 81.4447C168.362 81.21 168.937 81.1037 169.512 81.1344C170.07 81.1255 170.624 81.2335 171.138 81.4515C171.662 81.6859 172.125 82.0395 172.488 82.4843L171 84.013C170.773 83.7652 170.496 83.5684 170.187 83.4357C169.848 83.3151 169.489 83.2573 169.13 83.2649C168.751 83.2531 168.373 83.3192 168.021 83.4591C167.668 83.599 167.348 83.8096 167.08 84.0781C166.507 84.7529 166.224 85.6267 166.292 86.5095Z" fill="black"/>
<path d="M173.643 93.267V75.3771H175.879V93.267H173.643ZM181.246 93.267L175.692 87.1844L181.165 81.3865H183.922L177.79 87.7862L177.896 86.4851L184.141 93.267H181.246Z" fill="black"/>
<path d="M189.703 93.5109C188.565 93.5402 187.441 93.2591 186.451 92.6977C185.52 92.172 184.745 91.4087 184.206 90.4859C183.366 89.0623 183.125 87.3633 183.537 85.7623C183.949 84.1613 184.979 82.7893 186.402 81.9476C187.345 81.4024 188.418 81.1215 189.508 81.1344C190.527 81.1167 191.531 81.3782 192.411 81.8907C193.257 82.381 193.947 83.0997 194.403 83.9642C194.888 84.8976 195.131 85.9376 195.111 86.9893C195.111 87.1519 195.111 87.3308 195.111 87.526C195.092 87.7392 195.059 87.9511 195.013 88.1602H184.971V86.2899H193.769L192.956 87.0137C192.976 86.3088 192.828 85.6093 192.525 84.9726C192.259 84.4334 191.844 83.9818 191.33 83.6715C190.756 83.3518 190.107 83.1944 189.451 83.2161C188.744 83.2004 188.046 83.3715 187.426 83.7122C186.85 84.0367 186.38 84.5229 186.076 85.1108C185.747 85.7715 185.585 86.5032 185.605 87.2413C185.587 88.0003 185.757 88.7518 186.101 89.4288C186.426 90.0382 186.92 90.5409 187.524 90.8762C188.178 91.227 188.912 91.4034 189.654 91.3885C190.284 91.3967 190.909 91.2778 191.492 91.0389C192.045 90.803 192.538 90.4443 192.932 89.9899L194.379 91.4617C193.803 92.1225 193.086 92.645 192.281 92.9905C191.465 93.3348 190.589 93.5118 189.703 93.5109Z" fill="black"/>
<path d="M195.924 83.4438V81.3865H204.056V83.4438H195.924ZM198.843 93.2751V76.4099H201.087V93.267L198.843 93.2751Z" fill="black"/>
<path d="M207.374 79.012C207.183 79.0181 206.994 78.9843 206.817 78.9129C206.641 78.8415 206.481 78.734 206.349 78.5973C206.217 78.4608 206.113 78.2989 206.045 78.1215C205.976 77.9441 205.944 77.7546 205.951 77.5646C205.945 77.377 205.977 77.1903 206.046 77.0156C206.114 76.8409 206.217 76.6819 206.349 76.5481C206.624 76.2818 206.991 76.1329 207.374 76.1329C207.756 76.1329 208.124 76.2818 208.398 76.5481C208.53 76.6819 208.633 76.8409 208.701 77.0156C208.77 77.1903 208.802 77.377 208.797 77.5646C208.803 77.9363 208.663 78.2956 208.406 78.5648C208.276 78.7084 208.116 78.8226 207.938 78.8997C207.76 78.9768 207.568 79.0151 207.374 79.012ZM206.219 93.267V81.3865H208.496V93.267H206.219Z" fill="black"/>
<path d="M211.821 93.267V81.3865H214.098V93.267H211.821ZM220.197 93.267V86.3387C220.215 85.932 220.153 85.5257 220.013 85.1433C219.874 84.7609 219.66 84.4099 219.384 84.1106C219.101 83.8192 218.76 83.591 218.383 83.441C218.006 83.291 217.602 83.2227 217.196 83.2405C216.628 83.2248 216.066 83.3625 215.57 83.639C215.113 83.9007 214.734 84.2797 214.472 84.7368C214.195 85.2329 214.057 85.795 214.074 86.3631L213.147 85.8345C213.126 84.9822 213.334 84.1399 213.749 83.395C214.149 82.7112 214.728 82.149 215.424 81.7687C216.167 81.3474 217.009 81.1339 217.863 81.1507C218.709 81.1356 219.541 81.3704 220.254 81.8256C220.933 82.2708 221.492 82.877 221.88 83.5902C222.276 84.2984 222.483 85.0964 222.482 85.9077V93.2832L220.197 93.267Z" fill="black"/>
<path d="M230.451 93.0637C229.438 93.0823 228.439 92.8202 227.565 92.3064C226.691 91.7927 225.976 91.0472 225.499 90.1525C224.994 89.2107 224.736 88.1557 224.751 87.0868C224.731 86.0288 224.986 84.9837 225.491 84.0537C225.967 83.1754 226.669 82.44 227.524 81.9232C228.398 81.3896 229.403 81.1082 230.427 81.11C231.289 81.0947 232.141 81.2842 232.915 81.663C233.616 82.0078 234.207 82.5398 234.623 83.1999C235.053 83.8961 235.297 84.6915 235.33 85.5093V88.6644C235.293 89.475 235.046 90.2621 234.615 90.9494C234.191 91.6063 233.598 92.1371 232.899 92.4863C232.141 92.8726 231.302 93.0706 230.451 93.0637ZM230.451 98.4875C229.33 98.5149 228.217 98.2839 227.199 97.8126C226.291 97.3854 225.507 96.7332 224.922 95.9179L226.402 94.4379C226.86 95.0363 227.45 95.5206 228.126 95.8529C228.87 96.1947 229.682 96.3616 230.5 96.3408C231.548 96.3938 232.576 96.048 233.379 95.3731C233.739 95.0492 234.022 94.6489 234.208 94.2015C234.394 93.7541 234.477 93.2709 234.452 92.7872V89.8354L234.851 87.16L234.452 84.5091V81.3865H236.705V92.7709C236.716 93.8244 236.434 94.8604 235.892 95.7634C235.358 96.6229 234.595 97.3159 233.688 97.7638C232.68 98.2543 231.572 98.5021 230.451 98.4875ZM230.874 90.9413C231.556 90.9567 232.229 90.7912 232.826 90.4615C233.372 90.1476 233.817 89.6851 234.111 89.1279C234.43 88.5046 234.589 87.8115 234.574 87.1112C234.591 86.4134 234.431 85.7228 234.111 85.1027C233.814 84.5381 233.363 84.0698 232.81 83.7528C232.22 83.4187 231.552 83.2501 230.874 83.2649C230.184 83.2503 229.502 83.4186 228.898 83.7528C228.339 84.0732 227.878 84.5399 227.565 85.1027C227.231 85.7097 227.062 86.3941 227.077 87.0868C227.065 87.7845 227.233 88.4733 227.565 89.0872C227.877 89.6607 228.345 90.1343 228.915 90.4534C229.514 90.7848 230.19 90.953 230.874 90.9413Z" fill="black"/>
<path d="M79.3389 228.766V211.413H80.9652L81.6645 214.162V228.799L79.3389 228.766ZM91.3413 228.766L80.6887 214.568L80.9896 211.413L91.6585 225.619L91.3413 228.766ZM91.3413 228.766L90.6339 226.189V211.413H92.9839V228.766H91.3413Z" fill="black"/>
<path d="M97.0908 228.766V211.413H99.4409V228.766H97.0908ZM98.7172 213.568V211.413H108.191V213.552L98.7172 213.568ZM98.7172 221.139V218.992H107.768V221.139H98.7172Z" fill="black"/>
<path d="M109.418 213.552V211.397H123.543V213.552H109.418ZM115.29 228.75V211.925H117.664V228.774L115.29 228.75Z" fill="black"/>
<path d="M545.459 217.504C544.25 217.526 543.057 217.226 542.003 216.634C540.992 216.067 540.15 215.242 539.563 214.243C538.967 213.204 538.661 212.025 538.677 210.828V199.907H541.051V210.779C541.031 211.607 541.23 212.427 541.629 213.153C541.996 213.805 542.537 214.342 543.19 214.706C543.878 215.081 544.651 215.272 545.434 215.259C546.207 215.273 546.97 215.082 547.646 214.706C548.287 214.339 548.813 213.802 549.167 213.153C549.555 212.432 549.748 211.622 549.728 210.803V199.907H552.11V210.852C552.13 212.046 551.827 213.223 551.232 214.259C550.662 215.245 549.843 216.064 548.858 216.634C547.823 217.222 546.649 217.523 545.459 217.504Z" fill="black"/>
<path d="M556.006 217.26V199.907H558.356V217.26H556.006Z" fill="black"/>
<path d="M568.984 217.504C567.778 217.526 566.587 217.226 565.536 216.634C564.512 216.055 563.665 215.209 563.083 214.187C562.502 213.164 562.209 212.003 562.234 210.828V199.907H564.576V210.779C564.552 211.608 564.751 212.428 565.154 213.153C565.521 213.805 566.062 214.342 566.715 214.706C567.4 215.081 568.171 215.272 568.951 215.259C569.724 215.273 570.487 215.082 571.163 214.706C571.806 214.34 572.336 213.802 572.692 213.153C573.08 212.432 573.273 211.622 573.253 210.803V199.907H575.628V210.852C575.647 212.046 575.344 213.223 574.749 214.259C574.181 215.246 573.362 216.065 572.375 216.634C571.343 217.222 570.172 217.523 568.984 217.504Z" fill="black"/>
<path d="M577.783 217.26L584.516 208.03L586.142 209.429L580.45 217.26H577.783ZM590.794 217.26L585.37 209.307H584.906L578.051 199.907H580.857L586.256 207.38H586.679L593.534 217.26H590.794ZM586.874 208.884L585.296 207.477L590.623 199.907H593.298L586.874 208.884Z" fill="black"/>
<path d="M309.24 31.9617V14.6086H311.59V31.9617H309.24Z" fill="black"/>
<path d="M315.314 31.9617V14.1125H317.567V32.0024L315.314 31.9617Z" fill="black"/>
<path d="M320.087 31.9617V14.1125H322.34V32.0024L320.087 31.9617Z" fill="black"/>
<path d="M329.667 32.165C328.748 32.1825 327.84 31.9612 327.032 31.5226C326.262 31.1105 325.631 30.4795 325.219 29.7092C324.769 28.8731 324.545 27.9342 324.568 26.9851V20.0894H326.821V26.8875C326.803 27.4666 326.917 28.0421 327.154 28.5708C327.359 29.0285 327.703 29.4099 328.138 29.6605C328.605 29.9189 329.133 30.0481 329.667 30.0345C330.051 30.0597 330.436 30 330.794 29.8594C331.153 29.7188 331.476 29.501 331.74 29.2213C332.276 28.5753 332.546 27.7498 332.497 26.9119V20.0894H334.741V26.9851C334.764 27.9342 334.54 28.8731 334.09 29.7092C333.679 30.4749 333.055 31.1049 332.293 31.5226C331.489 31.9619 330.583 32.1834 329.667 32.165Z" fill="black"/>
<path d="M341.547 32.2138C340.904 32.2157 340.264 32.1281 339.645 31.9536C339.069 31.7818 338.521 31.5271 338.018 31.1973C337.533 30.8782 337.099 30.4859 336.733 30.0345L338.189 28.587C338.582 29.094 339.089 29.5008 339.669 29.7743C340.267 30.0415 340.917 30.1747 341.572 30.1646C342.137 30.1961 342.701 30.0693 343.198 29.7987C343.375 29.6975 343.521 29.5504 343.622 29.3729C343.722 29.1954 343.772 28.9941 343.767 28.7903C343.777 28.5962 343.74 28.4024 343.66 28.2255C343.579 28.0486 343.457 27.8937 343.304 27.7739C342.946 27.5061 342.544 27.3025 342.117 27.1721C341.634 27.0203 341.122 26.8658 340.58 26.7086C340.049 26.5619 339.534 26.363 339.043 26.115C338.569 25.8684 338.162 25.5114 337.856 25.0741C337.525 24.5559 337.363 23.9479 337.392 23.3339C337.367 22.6808 337.542 22.0356 337.896 21.4858C338.249 20.936 338.763 20.5081 339.368 20.2601C340.089 19.9601 340.865 19.8159 341.645 19.8373C342.5 19.8211 343.348 19.9874 344.133 20.3252C344.849 20.6452 345.467 21.1505 345.922 21.7889L344.467 23.2689C344.13 22.8484 343.706 22.5069 343.223 22.2687C342.713 22.0318 342.158 21.9123 341.596 21.919C341.076 21.8845 340.558 22.0062 340.108 22.2687C339.957 22.3687 339.831 22.5035 339.742 22.6618C339.653 22.8202 339.604 22.9975 339.597 23.1789C339.591 23.3604 339.628 23.5407 339.706 23.7049C339.783 23.8691 339.899 24.0123 340.043 24.1227C340.408 24.3659 340.808 24.5498 341.23 24.6675L342.767 25.1311C343.298 25.2909 343.81 25.5063 344.296 25.7735C344.773 26.0298 345.18 26.3982 345.483 26.8469C345.815 27.3767 345.977 27.9952 345.947 28.6196C345.968 29.1232 345.871 29.6249 345.665 30.0849C345.459 30.545 345.149 30.9509 344.759 31.2705C343.834 31.9539 342.696 32.288 341.547 32.2138Z" fill="black"/>
<path d="M347.093 22.1386V20.0894H355.225V22.1386H347.093ZM350.021 31.9617V15.1371H352.273V31.9617H350.021Z" fill="black"/>
<path d="M357.396 31.9617V20.0894H359.657V31.9617H357.396ZM359.648 25.2124L358.795 24.8139C358.727 23.5215 359.096 22.2438 359.844 21.1872C360.207 20.7302 360.675 20.3684 361.21 20.1333C361.744 19.8981 362.327 19.7965 362.909 19.8373C363.467 19.8297 364.02 19.9348 364.536 20.1463C365.06 20.384 365.522 20.7403 365.886 21.1872L364.414 22.7078C364.187 22.4612 363.91 22.2669 363.601 22.1386C363.076 21.9508 362.51 21.9099 361.964 22.0202C361.418 22.1306 360.913 22.388 360.502 22.7647C360.204 23.0949 359.975 23.4818 359.83 23.9024C359.685 24.3229 359.626 24.7685 359.657 25.2124H359.648Z" fill="black"/>
<path d="M371.594 32.2138C370.539 32.236 369.5 31.9537 368.601 31.4006C367.727 30.8588 367.012 30.0958 366.528 29.1888C366.026 28.2143 365.764 27.134 365.764 26.0377C365.764 24.9415 366.026 23.8612 366.528 22.8867C367.014 21.9766 367.728 21.2087 368.601 20.6586C369.491 20.112 370.517 19.8299 371.561 19.8454C372.409 19.8265 373.247 20.0193 374.001 20.4065C374.711 20.773 375.311 21.3215 375.739 21.9959C376.168 22.6702 376.41 23.4462 376.44 24.2447V27.8227C376.405 28.6312 376.159 29.4164 375.725 30.0996C375.305 30.7633 374.716 31.3024 374.017 31.6608C373.266 32.0391 372.434 32.2289 371.594 32.2138ZM371.976 30.0914C372.482 30.1099 372.986 30.0176 373.452 29.8209C373.918 29.6242 374.336 29.328 374.676 28.953C375.376 28.1455 375.742 27.1016 375.7 26.0337C375.713 25.298 375.548 24.57 375.221 23.9113C374.931 23.3118 374.477 22.807 373.911 22.4557C373.319 22.1052 372.64 21.9277 371.952 21.9434C371.251 21.9304 370.561 22.1135 369.959 22.472C369.381 22.822 368.91 23.3259 368.601 23.9276C368.267 24.5697 368.099 25.2855 368.113 26.0093C368.093 26.7519 368.261 27.4876 368.601 28.1479C368.914 28.7451 369.387 29.2435 369.967 29.5873C370.577 29.9385 371.273 30.1131 371.976 30.0914ZM375.546 31.9617V28.7659L375.977 25.8629L375.546 22.9843V20.0894H377.823V31.9617H375.546Z" fill="black"/>
<path d="M379.799 22.1386V20.0894H387.931V22.1386H379.799ZM382.726 31.9617V15.1371H384.979V31.9617H382.726Z" fill="black"/>
<path d="M391.248 17.7068C391.059 17.7144 390.87 17.6822 390.693 17.6121C390.517 17.5421 390.357 17.4358 390.224 17.3002C390.092 17.1619 389.988 16.9986 389.92 16.8199C389.851 16.6412 389.819 16.4506 389.825 16.2593C389.821 16.0712 389.855 15.8842 389.925 15.7095C389.995 15.5349 390.099 15.3762 390.232 15.2432C390.365 15.1101 390.524 15.0055 390.699 14.9355C390.873 14.8656 391.06 14.8318 391.248 14.8363C391.439 14.8287 391.629 14.8617 391.805 14.9332C391.982 15.0047 392.142 15.1131 392.273 15.251C392.405 15.3829 392.51 15.5402 392.58 15.7135C392.65 15.8868 392.684 16.0725 392.68 16.2593C392.685 16.4512 392.651 16.6421 392.582 16.8208C392.512 16.9996 392.407 17.1626 392.273 17.3002C392.141 17.4371 391.981 17.5442 391.805 17.6143C391.628 17.6844 391.438 17.716 391.248 17.7068ZM390.102 31.9617V20.0894H392.379V31.9617H390.102Z" fill="black"/>
<path d="M401.128 32.2138C400.03 32.2332 398.948 31.952 397.998 31.4006C397.059 30.8491 396.282 30.0592 395.747 29.111C395.211 28.1629 394.936 27.09 394.948 26.0012C394.929 24.9081 395.21 23.8308 395.761 22.8867C396.303 21.9738 397.066 21.2129 397.981 20.6749C398.933 20.127 400.014 19.846 401.112 19.8617C402.22 19.8458 403.312 20.1265 404.275 20.6749C405.215 21.2106 405.995 21.9874 406.533 22.9252C407.072 23.863 407.351 24.9277 407.341 26.0093C407.348 26.8266 407.191 27.637 406.881 28.3932C406.571 29.1495 406.114 29.8364 405.535 30.414C404.957 30.9915 404.27 31.4481 403.513 31.7571C402.756 32.0662 401.946 32.2214 401.128 32.2138ZM401.128 30.0345C401.838 30.05 402.539 29.87 403.153 29.5141C403.734 29.1682 404.209 28.6705 404.527 28.0748C404.868 27.4318 405.039 26.7124 405.023 25.9849C405.039 25.2694 404.865 24.5625 404.519 23.9357C403.984 23.0483 403.125 22.4042 402.123 22.1401C401.121 21.8759 400.055 22.0125 399.152 22.5208C398.573 22.8574 398.098 23.3469 397.778 23.9357C397.436 24.564 397.263 25.2698 397.274 25.9849C397.261 26.7131 397.434 27.4326 397.778 28.0748C398.097 28.6705 398.572 29.1682 399.152 29.5141C399.751 29.866 400.434 30.0461 401.128 30.0345Z" fill="black"/>
<path d="M409.83 31.9617V20.0894H412.082V31.9617H409.83ZM418.205 31.9617V25.0335C418.223 24.6281 418.16 24.2232 418.021 23.8422C417.881 23.4612 417.667 23.1116 417.392 22.8135C417.11 22.5215 416.769 22.2923 416.392 22.141C416.015 21.9896 415.611 21.9195 415.205 21.9353C414.637 21.9239 414.076 22.0613 413.578 22.3337C413.131 22.601 412.763 22.9828 412.513 23.4397C412.235 23.9355 412.097 24.4978 412.115 25.066L411.188 24.5456C411.166 23.6932 411.374 22.8506 411.789 22.1061C412.191 21.423 412.77 20.861 413.464 20.4797C414.209 20.0639 415.051 19.8534 415.904 19.8698C416.75 19.8548 417.582 20.0896 418.295 20.5448C418.978 20.9857 419.537 21.5929 419.921 22.3093C420.316 23.015 420.523 23.8101 420.523 24.6188V31.9943L418.205 31.9617Z" fill="black"/>
<g opacity="0.9">
<path d="M600.926 380.082H587.655V372.763H600.926C602.184 372.761 603.39 372.26 604.279 371.369C605.167 370.479 605.667 369.272 605.667 368.014V344.774C605.667 343.516 605.167 342.309 604.279 341.419C603.39 340.528 602.184 340.027 600.926 340.025H587.655V332.706H600.926C604.124 332.711 607.19 333.984 609.451 336.246C611.712 338.508 612.983 341.575 612.985 344.774V368.055C612.972 371.246 611.697 374.303 609.437 376.556C607.177 378.81 604.117 380.078 600.926 380.082Z" fill="#141414"/>
<path opacity="0.15" d="M561.877 328.632C561.877 328.632 562.137 305.392 578.14 301.586C594.144 297.78 592.713 282.94 592.713 282.94C592.713 282.94 597.966 302.375 587.833 307.099C577.701 311.824 570.757 333.755 570.757 333.755L561.877 328.632Z" fill="#969696"/>
<path opacity="0.15" d="M559.641 329.429C559.641 329.429 551.989 318.598 558.12 311.482C564.251 304.367 558.616 297.992 558.616 297.992C558.616 297.992 567.561 305.213 564.455 310.783C561.348 316.353 565.479 328.811 565.479 328.811L559.641 329.429Z" fill="#969696"/>
<path d="M586.777 397.093H547.573C545.594 397.093 543.695 396.307 542.295 394.907C540.895 393.507 540.108 391.608 540.108 389.628V325.477C540.108 325.181 540.167 324.887 540.281 324.613C540.394 324.339 540.561 324.091 540.771 323.881C540.981 323.672 541.23 323.506 541.505 323.394C541.779 323.281 542.073 323.224 542.369 323.225H591.973C592.269 323.224 592.563 323.281 592.837 323.394C593.111 323.506 593.361 323.672 593.571 323.881C593.781 324.091 593.947 324.339 594.061 324.613C594.175 324.887 594.233 325.181 594.233 325.477V389.628C594.233 391.607 593.448 393.504 592.05 394.904C590.652 396.304 588.755 397.091 586.777 397.093Z" fill="#FFDB00"/>
</g>
<path d="M0.233398 397.093H686" stroke="#141414" stroke-miterlimit="10"/>
</g>
<defs>
<clipPath id="clip0_56_138">
<rect width="685.766" height="397" fill="white" transform="translate(0.233398 0.5)"/>
</clipPath>
</defs>
</svg>
