<svg width="49" height="49" viewBox="0 0 49 49" fill="none" xmlns="http://www.w3.org/2000/svg">
<rect x="41.05" y="1.125" width="6.3125" height="6.5" fill="#FFDB00"/>
<rect x="1.55001" y="1.125" width="6.3125" height="6.5" fill="#FFDB00"/>
<path d="M47.1363 0H41.5363C40.7363 0 40.1363 0.6 40.1363 1.4V2.8H28.5363C27.9363 1.2 26.4363 0 24.5363 0C22.6363 0 21.1363 1.2 20.5363 2.8H8.93633V1.4C8.93633 0.6 8.33634 0 7.53634 0H1.93633C1.13633 0 0.536339 0.6 0.536339 1.4V7C0.536339 7.8 1.13633 8.4 1.93633 8.4H7.53634C8.33634 8.4 8.93633 7.8 8.93633 7V5.6H14.7363C9.63632 8.8 6.53632 14.2 6.23632 20C4.53632 20.6 3.33633 22.1 3.33633 24C3.33633 26.3 5.23634 28.2 7.53634 28.2C9.83634 28.2 11.7363 26.3 11.7363 24C11.7363 22.2 10.5363 20.6 8.93633 20C9.43633 13.4 14.2363 7.7 20.5363 6.1C21.2363 7.5 22.6363 8.4 24.3363 8.4C26.0363 8.4 27.4363 7.4 28.1363 6.1C34.5363 7.7 39.2363 13.4 39.7363 20C38.1363 20.6 36.9363 22.1 36.9363 24C36.9363 26.3 38.8363 28.2 41.1363 28.2C43.4363 28.2 45.3363 26.3 45.3363 24C45.3363 22.2 44.1363 20.6 42.4363 20C42.0363 14.2 38.9363 8.8 33.9363 5.6H39.7363V7C39.7363 7.8 40.3363 8.4 41.1363 8.4H46.7363C47.5363 8.4 48.1363 7.8 48.1363 7V1.4C48.5363 0.6 47.9363 0 47.1363 0ZM6.13634 5.6H3.33633V2.8H6.13634V5.6ZM7.63634 25.4C6.83634 25.4 6.23632 24.8 6.23632 24C6.23632 23.2 6.83634 22.6 7.63634 22.6C8.43635 22.6 9.03634 23.2 9.03634 24C9.03634 24.8 8.43635 25.4 7.63634 25.4ZM24.5363 5.6C23.7363 5.6 23.1363 5 23.1363 4.2C23.1363 3.4 23.7363 2.8 24.5363 2.8C25.3363 2.8 25.9363 3.4 25.9363 4.2C25.9363 5 25.3363 5.6 24.5363 5.6ZM41.4363 22.6C42.2363 22.6 42.8363 23.2 42.8363 24C42.8363 24.8 42.2363 25.4 41.4363 25.4C40.6363 25.4 40.0363 24.8 40.0363 24C40.0363 23.2 40.6363 22.6 41.4363 22.6ZM45.7363 5.6H42.9363V2.8H45.7363V5.6Z" fill="#141414"/>
<path d="M36.9363 28.8L25.7363 12C25.7363 12 25.7363 11.9 25.6363 11.9C25.0363 11.2 23.9363 11.2 23.3363 12L12.1363 28.9C11.7363 29.5 11.8363 30.2 12.3363 30.7C15.1363 33.5 16.9363 37.2 17.4363 41.1C17.2363 41.3 17.0363 41.5 16.8363 41.7C15.5363 43.1 14.8363 44.8 14.8363 46.7C14.8363 47.5 15.4363 48.1 16.2363 48.1H32.9363C33.7363 48.1 34.3363 47.5 34.3363 46.7C34.3363 44.8 33.6363 43 32.3363 41.7C32.1363 41.5 31.9363 41.3 31.7363 41.1C32.2363 37.2 34.0363 33.5 36.8363 30.7C37.2363 30.1 37.3363 29.4 36.9363 28.8ZM24.5363 28.2C25.3363 28.2 25.9363 28.8 25.9363 29.6C25.9363 30.4 25.3363 31 24.5363 31C23.7363 31 23.1363 30.4 23.1363 29.6C23.1363 28.8 23.7363 28.2 24.5363 28.2ZM17.7363 45.2C18.3363 43.5 19.9363 42.3 21.7363 42.3H27.3363C29.1363 42.3 30.7363 43.5 31.3363 45.2H17.7363ZM29.0363 39.7C28.4363 39.6 27.9363 39.5 27.3363 39.5H21.7363C21.1363 39.5 20.5363 39.6 20.0363 39.7C19.3363 35.9 17.6363 32.4 15.1363 29.5L23.2363 17.4V25.7C21.6363 26.3 20.4363 27.8 20.4363 29.7C20.4363 32 22.3363 33.9 24.6363 33.9C26.9363 33.9 28.8363 32 28.8363 29.7C28.8363 27.9 27.6363 26.3 26.0363 25.7V17.4L34.1363 29.5C31.4363 32.3 29.7363 35.9 29.0363 39.7Z" fill="#141414"/>
</svg>
