<svg width="49" height="49" viewBox="0 0 49 49" fill="none" xmlns="http://www.w3.org/2000/svg">
<path d="M31.0338 46.1567L19.7162 19.4675L46.0676 31.2919L34.9189 36.0216L31.0338 46.1567Z" fill="#FFDB00"/>
<path d="M47.3 29.8499L21.8 18.7499C24.3 15.8499 25.9 12.2499 26.3 8.44993H27.8C28.6 8.44993 29.2 7.84993 29.2 7.04993V1.44993C29.2 0.649927 28.6 0.0499268 27.8 0.0499268H22.2C21.4 0.0499268 20.8 0.649927 20.8 1.44993V7.04993C20.8 7.84993 21.4 8.44993 22.2 8.44993H23.5C23 12.1499 21.3 15.4499 18.6 18.0499C15.9 20.6499 12.4 22.2499 8.7 22.5499V21.6499C8.7 20.8499 8.09999 20.2499 7.29999 20.2499H1.7C0.899997 20.2499 0.299988 20.8499 0.299988 21.6499V27.2499C0.299988 28.0499 0.899997 28.6499 1.7 28.6499H7.29999C8.09999 28.6499 8.7 28.0499 8.7 27.2499V25.3499C12.4 25.0499 16 23.7499 18.9 21.4499L24.4 34.3499L29.9 47.2499C30.1 47.7499 30.6 48.0499 31.2 48.0499C31.8 48.0499 32.4 47.6499 32.5 47.0499L35.1 38.7499C35.6 36.9499 37 35.6499 38.8 35.0499L47.1 32.4499C47.7 32.2499 48.1 31.7499 48.1 31.1499C48.1 30.6499 47.8 30.0499 47.3 29.8499ZM23.5 2.84993H26.3V5.64993H23.5V2.84993ZM5.7 25.9499H2.89999V23.1499H5.7V25.9499ZM37.9 32.3499C35.3 33.1499 33.2 35.2499 32.4 37.8499L31 42.5499L22 21.9499L42.6 30.9499L37.9 32.3499Z" fill="#141414"/>
</svg>
