<svg width="49" height="49" viewBox="0 0 49 49" fill="none" xmlns="http://www.w3.org/2000/svg">
<rect x="0.600037" y="0.0499268" width="48" height="48" rx="11" fill="#FFDB00"/>
<path d="M39.3 0.0499268H9.90003C4.80003 0.0499268 0.600037 4.24993 0.600037 9.34993V38.7499C0.600037 43.8499 4.80003 48.0499 9.90003 48.0499H39.3C44.4 48.0499 48.6 43.8499 48.6 38.7499V9.34993C48.6 4.24993 44.4 0.0499268 39.3 0.0499268ZM45.9 9.34993V38.7499C45.9 42.4499 42.9 45.3499 39.3 45.3499H9.90003C6.20003 45.3499 3.30003 42.3499 3.30003 38.7499V9.34993C3.30003 5.64993 6.30003 2.74993 9.90003 2.74993H39.3C43 2.74993 45.9 5.64993 45.9 9.34993Z" fill="#141414"/>
<path d="M16.9 24.45L15.2 18.45H11.9V29.65H14.5V23.65L16.2 29.65H19.5V18.45H16.9V24.45Z" fill="#141414"/>
<path d="M20.8 29.65H23.4V25.75H27.3V23.25H23.4V20.95H28.6001V18.45H20.8V29.65Z" fill="#141414"/>
<path d="M28.8 20.95H31.7001V29.65H34.3V20.95H37.3V18.45H28.8V20.95Z" fill="#141414"/>
</svg>
