<svg width="48" height="49" viewBox="0 0 48 49" fill="none" xmlns="http://www.w3.org/2000/svg">
<rect width="48" height="48" transform="translate(0 0.0499268)" fill="white"/>
<path d="M7.94885 21.8347V5.41421L13.4908 4.0459L19.4432 5.41421V21.8347L13.4908 18.277L7.94885 21.8347Z" fill="#FFDB00"/>
<path d="M43.7 13.3499H21.2V7.24993C21.2 4.94993 19.3 3.04993 17 3.04993H10.4C8.09999 3.04993 6.2 4.94993 6.2 7.24993V13.3499H4.2C1.9 13.3499 0 15.2499 0 17.5499V34.4499C0 36.7499 1.9 38.6499 4.2 38.6499H43.8C46.1 38.6499 48 36.7499 48 34.4499V17.5499C48 15.2499 46.1 13.3499 43.7 13.3499ZM8.89999 7.34993C8.89999 6.54993 9.59999 5.84993 10.4 5.84993H17C17.8 5.84993 18.5 6.54993 18.5 7.34993V20.1499L15.5 17.7499L15.3 17.6499C14.3 16.9499 13 16.9499 11.9 17.6499L8.8 20.1499V7.34993H8.89999ZM45.3 34.4499C45.3 35.2499 44.6 35.9499 43.8 35.9499H4.2C3.4 35.9499 2.7 35.2499 2.7 34.4499V17.5499C2.7 16.7499 3.4 16.0499 4.2 16.0499H6.2V20.7499C6.2 21.6499 6.7 22.4499 7.5 22.9499C7.8 23.1499 8.2 23.1499 8.5 23.1499C9 23.1499 9.5 22.9499 10 22.6499L13.6 19.7499H13.8L17.4 22.5499C18.1 23.0499 19.1 23.2499 19.9 22.8499C20.8 22.4499 21.2 21.6499 21.2 20.6499V15.9499H43.8C44.6 15.9499 45.3 16.6499 45.3 17.4499V34.4499Z" fill="#141414"/>
</svg>
