<svg width="49" height="49" viewBox="0 0 49 49" fill="none" xmlns="http://www.w3.org/2000/svg">
<rect x="0.800049" y="0.0499268" width="48" height="47.8" rx="14" fill="#FFDB00"/>
<path d="M39.5 0.0499268H10.1C5.00005 0.0499268 0.800049 4.24993 0.800049 9.34993V38.7499C0.800049 43.8499 5.00005 48.0499 10.1 48.0499H39.5C44.6 48.0499 48.8 43.8499 48.8 38.7499V9.34993C48.8 4.24993 44.6 0.0499268 39.5 0.0499268ZM39.5 45.3499H10.1C6.40005 45.3499 3.50005 42.3499 3.50005 38.7499V9.34993C3.50005 5.64993 6.50005 2.74993 10.1 2.74993H39.5C43.2001 2.74993 46.1 5.74993 46.1 9.34993V38.7499C46.1 42.4499 43.2001 45.3499 39.5 45.3499Z" fill="#141414"/>
<path d="M19.8 20.2499C21.2 20.2499 22.3 19.8499 23.1 19.1499C23.9 18.3499 24.2 17.2499 24.2 15.8499V7.1499H21.3V15.7499C21.3 16.9499 20.9 17.3499 19.8 17.3499C19.3 17.3499 18.9 17.2499 18.7 16.9499C18.5 16.6499 18.3 16.2499 18.3 15.6499V7.1499H15.4V15.7499C15.5 18.6499 17 20.2499 19.8 20.2499Z" fill="#141414"/>
<path d="M34.1 17.3499H31.4V9.9499H34.1V7.1499H25.8V9.9499H28.5V17.3499H25.8V20.0499H34.1V17.3499Z" fill="#141414"/>
<path d="M20.9001 36.4499C20.9001 37.6499 20.5001 38.0499 19.4001 38.0499C18.9001 38.0499 18.5001 37.9499 18.3001 37.6499C18.1001 37.3499 17.9001 36.9499 17.9001 36.3499V27.7499H15.0001V36.3499C15.0001 39.2499 16.5001 40.8499 19.4001 40.8499C20.8001 40.8499 21.9001 40.4499 22.7001 39.7499C23.5001 38.9499 23.8001 37.8499 23.8001 36.4499V27.8499H20.9001V36.4499Z" fill="#141414"/>
<path d="M35.0001 27.85H31.5001L29.5001 31.65L27.5001 27.85H24.0001L28.0001 34.35L24.0001 40.75H27.5001L29.5001 37.05L31.5001 40.75H35.0001L31.0001 34.35L35.0001 27.85Z" fill="#141414"/>
</svg>
