<svg width="168" height="36" viewBox="0 0 168 36" fill="none" xmlns="http://www.w3.org/2000/svg">
<path d="M113.292 15.3964C107.839 15.3964 103.437 19.9733 103.437 25.6243C103.437 31.2753 107.839 35.8522 113.292 35.8522C118.745 35.8522 123.177 31.2753 123.177 25.6243C123.184 19.9733 118.745 15.3964 113.292 15.3964ZM117.543 23.834L112.638 28.9013C112.586 28.9791 112.488 29.0336 112.413 29.0725C112.038 29.345 111.497 29.2827 111.174 28.9558L109.078 26.7841C108.687 26.3793 108.687 25.7333 109.078 25.3285C109.454 24.9238 110.092 24.9238 110.468 25.3285L111.887 26.7841L116.139 22.3785C116.529 21.9737 117.153 21.9737 117.543 22.3785C117.919 22.791 117.919 23.4293 117.543 23.834Z" fill="#69BC45"/>
<path d="M43.7447 30.1466C44.1954 30.1466 44.5484 30.3256 44.8113 30.6759C45.1042 31.0339 45.2469 31.5088 45.2469 32.1081C45.2469 32.9565 44.7587 33.6649 43.7897 34.2331C42.8959 34.7546 41.8819 35.1749 40.7476 35.5018C39.6134 35.7976 38.5393 35.9533 37.5102 35.9533C34.4081 35.9533 31.9443 35.027 30.1266 33.1745C28.3088 31.3219 27.4 28.7844 27.4 25.5697C27.4 23.5226 27.7981 21.709 28.5868 20.1289C29.3755 18.5488 30.4796 17.3189 31.8993 16.4471C33.349 15.5754 34.9789 15.1395 36.7967 15.1395C38.5318 15.1395 40.0491 15.5364 41.3335 16.3226C42.6255 17.1165 43.6245 18.2296 44.3306 19.6774C45.0441 21.1252 45.3972 22.8298 45.3972 24.7914C45.3972 25.9667 44.8939 26.5505 43.8949 26.5505H32.2523C32.41 28.4342 32.9208 29.8197 33.7921 30.7226C34.6634 31.5944 35.9254 32.0303 37.5854 32.0303C38.4266 32.0303 39.1627 31.9213 39.7937 31.7033C40.4547 31.4854 41.1908 31.1818 42.002 30.8004C42.7982 30.3645 43.3766 30.1466 43.7447 30.1466ZM36.9168 18.7278C35.5723 18.7278 34.4982 19.1637 33.6795 20.0355C32.8908 20.9072 32.4175 22.1604 32.2598 23.8028H41.1833C41.1307 22.1371 40.7326 20.8839 39.9965 20.0355C39.2604 19.1637 38.2313 18.7278 36.9168 18.7278Z" fill="#398BCB"/>
<path d="M57.8055 15.1316C60.487 15.1316 62.4775 15.8243 63.7695 17.2176C65.084 18.5798 65.745 20.6659 65.745 23.4758V33.4546C65.745 34.1941 65.5347 34.7779 65.114 35.2138C64.6934 35.6263 64.115 35.8287 63.3789 35.8287C62.6954 35.8287 62.132 35.6107 61.6813 35.1748C61.2607 34.7389 61.0504 34.1629 61.0504 33.4546V32.5517C60.5997 33.6181 59.8936 34.4509 58.9172 35.0503C57.9707 35.6496 56.8666 35.9532 55.6047 35.9532C54.3127 35.9532 53.1409 35.6808 52.0893 35.1359C51.0378 34.5911 50.204 33.8438 49.6031 32.8864C48.9947 31.929 48.6942 30.8704 48.6942 29.6951C48.6942 28.2239 49.0472 27.0641 49.7608 26.2157C50.4969 25.3673 51.6837 24.7601 53.3137 24.3709C54.9437 23.9895 57.1971 23.7949 60.0664 23.7949H61.0504V22.8531C61.0504 21.5143 60.7725 20.5491 60.2241 19.9498C59.6683 19.3193 58.7744 19.0079 57.5426 19.0079C56.7764 19.0079 56.0028 19.1325 55.2141 19.3738C54.4254 19.5917 53.4865 19.9186 52.4123 20.3545C51.7288 20.7126 51.2255 20.8838 50.9101 20.8838C50.4368 20.8838 50.0387 20.7048 49.7233 20.3545C49.4303 19.9965 49.2876 19.5372 49.2876 18.9612C49.2876 18.4942 49.3928 18.105 49.6031 17.7781C49.8435 17.42 50.219 17.0931 50.7448 16.7973C51.6687 16.2758 52.7579 15.8711 54.0198 15.5675C55.3042 15.2795 56.5736 15.1316 57.8055 15.1316ZM56.5811 32.2715C57.8956 32.2715 58.9622 31.82 59.781 30.9249C60.6222 29.9986 61.0429 28.8077 61.0429 27.3677V26.5115H60.3293C58.5641 26.5115 57.1971 26.5893 56.2206 26.7606C55.2441 26.924 54.5531 27.212 54.1249 27.6168C53.7043 28.0293 53.494 28.582 53.494 29.2903C53.494 30.1621 53.7869 30.886 54.3653 31.462C54.9812 31.9991 55.7173 32.2715 56.5811 32.2715Z" fill="#398BCB"/>
<path d="M73.2036 35.8675C72.4901 35.8675 71.9042 35.6652 71.431 35.2526C70.9803 34.8167 70.7625 34.2018 70.7625 33.4156V8.99012C70.7625 8.19618 70.9878 7.59682 71.431 7.19207C71.9042 6.77953 72.4976 6.57715 73.2036 6.57715C73.9172 6.57715 74.5031 6.77953 74.9763 7.19207C75.4495 7.60461 75.6899 8.20396 75.6899 8.99012V33.4156C75.6899 34.2096 75.4495 34.8167 74.9763 35.2526C74.5106 35.6652 73.9172 35.8675 73.2036 35.8675Z" fill="#398BCB"/>
<path d="M96.887 6.58484C97.6231 6.58484 98.2315 6.80278 98.7047 7.23868C99.1779 7.67457 99.4183 8.25057 99.4183 8.95889V33.4233C99.4183 34.1628 99.1929 34.7466 98.7498 35.1825C98.2991 35.6184 97.7132 35.8363 96.9771 35.8363C96.241 35.8363 95.6476 35.6184 95.2044 35.1825C94.7537 34.7466 94.5359 34.1628 94.5359 33.4233V32.4036C93.9575 33.5245 93.1163 34.3963 92.0121 35.019C90.9304 35.6495 89.6986 35.9608 88.3015 35.9608C86.6415 35.9608 85.1542 35.5249 83.8397 34.6532C82.5478 33.7814 81.5337 32.5515 80.7976 30.9714C80.084 29.3602 79.731 27.5232 79.731 25.4527C79.731 23.3822 80.084 21.5686 80.7976 20.0119C81.5337 18.4551 82.5478 17.2564 83.8397 16.4158C85.1317 15.5673 86.6189 15.147 88.3015 15.147C89.6986 15.147 90.9304 15.4428 92.0121 16.0499C93.0937 16.6493 93.92 17.4977 94.4983 18.5874V8.87327C94.4983 8.1883 94.7087 7.64343 95.1293 7.23868C95.5574 6.80278 96.1508 6.58484 96.887 6.58484ZM89.5859 31.9833C91.1633 31.9833 92.3726 31.4229 93.2139 30.3098C94.0852 29.1889 94.5134 27.5933 94.5134 25.5228C94.5134 23.4523 94.0777 21.8644 93.2139 20.7747C92.3726 19.6538 91.1708 19.1012 89.6235 19.1012C88.0461 19.1012 86.8217 19.646 85.9504 20.7358C85.0791 21.8255 84.651 23.3978 84.651 25.4372C84.651 27.5076 85.0866 29.1189 85.9504 30.2631C86.8217 31.4151 88.0311 31.9833 89.5859 31.9833Z" fill="#398BCB"/>
<path d="M138.41 15.1316C140.724 15.1316 142.451 15.8166 143.578 17.1787C144.712 18.5409 145.276 20.6036 145.276 23.3591V33.4235C145.276 34.1863 145.05 34.7856 144.607 35.2215C144.186 35.6574 143.593 35.8754 142.834 35.8754C142.076 35.8754 141.467 35.6574 141.017 35.2215C140.573 34.7856 140.348 34.1863 140.348 33.4235V23.6393C140.348 22.0825 140.063 20.9539 139.477 20.2455C138.921 19.5372 138.042 19.1792 136.833 19.1792C135.413 19.1792 134.264 19.6462 133.4 20.5725C132.559 21.4987 132.138 22.7441 132.138 24.2931V33.4157C132.138 34.1785 131.913 34.7779 131.47 35.2138C131.026 35.6496 130.418 35.8676 129.652 35.8676C128.893 35.8676 128.285 35.6496 127.834 35.2138C127.414 34.7779 127.203 34.1785 127.203 33.4157V17.5835C127.203 16.8752 127.429 16.2992 127.872 15.8633C128.322 15.4274 128.923 15.2094 129.689 15.2094C130.373 15.2094 130.929 15.4274 131.349 15.8633C131.8 16.2758 132.018 16.8207 132.018 17.4979V18.6032C132.679 17.4823 133.558 16.6261 134.662 16.0267C135.766 15.4274 137.013 15.1316 138.41 15.1316Z" fill="#398BCB"/>
<path d="M165.564 30.1466C166.014 30.1466 166.367 30.3256 166.63 30.6759C166.923 31.0339 167.066 31.5088 167.066 32.1081C167.066 32.9565 166.578 33.6649 165.609 34.2331C164.715 34.7546 163.701 35.1749 162.566 35.5018C161.432 35.7976 160.358 35.9533 159.329 35.9533C156.227 35.9533 153.763 35.027 151.945 33.1745C150.128 31.3219 149.219 28.7844 149.219 25.5697C149.219 23.5226 149.617 21.709 150.406 20.1289C151.194 18.5488 152.298 17.3189 153.718 16.4471C155.168 15.5754 156.798 15.1395 158.616 15.1395C160.351 15.1395 161.868 15.5364 163.152 16.3226C164.444 17.1165 165.443 18.2296 166.149 19.6774C166.863 21.1252 167.216 22.8298 167.216 24.7914C167.216 25.9667 166.713 26.5505 165.714 26.5505H154.071C154.229 28.4342 154.74 29.8197 155.611 30.7226C156.482 31.5944 157.744 32.0303 159.404 32.0303C160.245 32.0303 160.982 31.9213 161.613 31.7033C162.274 31.4854 163.01 31.1818 163.821 30.8004C164.617 30.3645 165.195 30.1466 165.564 30.1466ZM158.736 18.7278C157.391 18.7278 156.317 19.1637 155.498 20.0355C154.71 20.9072 154.236 22.1604 154.079 23.8028H163.002C162.95 22.1371 162.551 20.8839 161.815 20.0355C161.079 19.1637 160.05 18.7278 158.736 18.7278Z" fill="#398BCB"/>
<path d="M23.2086 2.56086C23.2086 1.14422 22.1119 0 20.7599 0C19.4079 0 18.3112 1.14422 18.3112 2.56086V17.171C16.7939 15.5131 14.7583 14.3533 12.4298 13.9797C11.3932 13.8162 10.3567 13.824 9.32762 13.9875L9.18491 13.357C9.13233 13.139 8.97459 12.9678 8.75676 12.9211C8.53893 12.8744 8.32862 12.96 8.19341 13.139L5.88743 16.3304C5.78978 16.4705 5.75222 16.6417 5.78978 16.8052C5.82734 16.9686 5.9325 17.1088 6.08272 17.1866L9.5079 19.0002C9.59052 19.0469 9.67315 19.0625 9.76328 19.0625C9.88346 19.0625 10.0036 19.0236 10.1088 18.9379C10.2816 18.7978 10.3567 18.5721 10.3116 18.3542L10.1238 17.5213C10.7322 17.4512 11.3407 17.4668 11.9566 17.568C15.2916 18.1284 17.6652 21.0629 17.6051 24.5345C17.5751 26.4571 16.8164 28.2396 15.4794 29.5317C15.1264 29.8742 15.0888 30.4268 15.3743 30.8316L16.3432 32.1704C16.5085 32.3883 16.7413 32.5284 17.0042 32.5518C17.0343 32.5518 17.0643 32.5596 17.0944 32.5596C17.3347 32.5596 17.5676 32.4662 17.7478 32.2949C17.9431 32.1081 18.1309 31.9213 18.3112 31.7267V33.3146C18.3112 34.7312 19.4079 35.8755 20.7599 35.8755C22.1119 35.8755 23.2086 34.7312 23.2086 33.3146V2.56086Z" fill="#398BCB"/>
<path d="M15.021 31.7034L11.5958 29.8898C11.4005 29.7886 11.1676 29.812 10.9949 29.9521C10.8221 30.0922 10.747 30.3179 10.7921 30.5359L10.9799 31.3687C10.3639 31.4388 9.73297 31.4232 9.10953 31.3142C5.87214 30.746 3.45348 27.7726 3.49855 24.3867C3.52859 22.4563 4.27973 20.666 5.63177 19.3584C5.98481 19.0159 6.02236 18.4632 5.72942 18.0585L4.76046 16.7196C4.59521 16.5017 4.36235 16.3616 4.09946 16.3382C3.82905 16.3149 3.55864 16.4083 3.35583 16.5951C1.29021 18.5333 0.103417 21.2109 0.00576948 24.122C-0.166992 29.4617 3.55864 34.1086 8.68889 34.9259C9.20718 35.0115 9.73297 35.0505 10.2513 35.0505C10.762 35.0505 11.2803 34.996 11.7836 34.9181L11.9263 35.5486C11.9789 35.7744 12.1366 35.9378 12.3544 35.9845C12.392 35.9923 12.4295 36.0001 12.4746 36.0001C12.6474 36.0001 12.8126 35.9145 12.9178 35.7666L15.2163 32.5752C15.3139 32.4351 15.3515 32.2639 15.3139 32.1004C15.2764 31.9214 15.1712 31.7813 15.021 31.7034Z" fill="#398BCB"/>
</svg>
