<svg width="216" height="46" viewBox="0 0 216 46" fill="none" xmlns="http://www.w3.org/2000/svg">
<g clip-path="url(#clip0_5_113)">
<path d="M162.707 12.7513C161.334 12.7513 159.961 12.95 158.548 13.3869C157.135 13.8239 155.883 14.4197 154.793 15.1745L154.026 15.6909L155.803 18.8291L156.731 18.1935C157.781 17.4785 158.79 17.0018 159.759 16.684C160.688 16.3662 161.697 16.247 162.787 16.247C164.12 16.247 165.048 16.5648 165.573 17.1607C166.138 17.836 166.421 18.988 166.421 20.5769V21.133H166.259C163.231 21.133 160.809 21.2919 159.033 21.6494C157.095 22.007 155.722 22.6823 154.834 23.6356C153.986 24.6287 153.542 25.9396 153.542 27.5683C153.542 28.7997 153.905 29.9517 154.591 30.9448C155.278 31.9379 156.206 32.7323 157.337 33.2885C158.467 33.8446 159.759 34.1227 161.172 34.1227C162.828 34.1227 164.281 33.7254 165.533 32.9707C165.856 32.7721 166.138 32.5734 166.421 32.3351V33.8446H170.095V20.6564C170.095 18.0346 169.489 16.0484 168.278 14.7375C167.067 13.4266 165.21 12.7513 162.707 12.7513ZM166.421 24.6684V25.1054C166.421 26.2177 166.179 27.2108 165.735 28.045C165.29 28.8791 164.685 29.5544 163.918 30.0311C163.191 30.5078 162.303 30.7462 161.293 30.7462C160.042 30.7462 159.113 30.4284 158.387 29.8325C157.741 29.2367 157.377 28.4819 157.377 27.5285C157.377 26.7738 157.539 26.2574 157.942 25.8999C158.185 25.6615 158.79 25.2643 160.365 25.026C161.738 24.8273 163.716 24.7082 166.259 24.7082H166.421V24.6684Z" fill="#002040"/>
<path d="M183.499 30.2695C183.257 30.3489 182.934 30.4681 182.49 30.5873C182.126 30.6667 181.763 30.7064 181.4 30.7064C180.108 30.7064 179.26 30.3886 178.775 29.7531C178.25 29.038 177.968 27.9258 177.968 26.4957V16.4854H184.266V13.0691H177.968V5.60107H174.253V26.8532C174.253 29.1175 174.859 30.9448 176.03 32.2159C177.241 33.5665 179.018 34.2418 181.319 34.2418C181.924 34.2418 182.57 34.1624 183.257 34.0035C183.984 33.8446 184.508 33.646 184.872 33.4076L185.477 33.0104L184.589 29.912L183.499 30.2695Z" fill="#002040"/>
<path d="M75.5798 15.0155L75.4587 15.1744L75.5798 15.0155C72.4307 13.1883 68.2318 13.1883 65.0826 15.0155C63.5484 15.9292 62.2969 17.1606 61.3683 18.6701C60.4397 20.2193 59.9955 21.9672 59.9955 23.8739C59.9955 25.7807 60.4397 27.5682 61.3683 29.1174C62.2969 30.6667 63.5081 31.9378 65.0826 32.8515C66.6572 33.7651 68.4337 34.2418 70.3716 34.2418C72.2692 34.2418 74.0456 33.7651 75.6202 32.8515C77.1544 31.9378 78.406 30.7064 79.3346 29.1572C80.2632 27.608 80.7073 25.8204 80.7073 23.8739C80.7073 21.9672 80.2228 20.2193 79.3346 18.6701C78.3656 17.1606 77.114 15.8895 75.5798 15.0155ZM76.6699 23.8342C76.6699 25.1054 76.3873 26.2573 75.8221 27.2504L75.7817 27.2902C75.2165 28.2833 74.4898 29.038 73.5208 29.5941C71.6232 30.7461 68.9989 30.7064 67.061 29.5941C66.092 28.9983 65.3249 28.2435 64.7597 27.2504C64.1944 26.2573 63.9118 25.1451 63.9118 23.8739C63.9118 22.6028 64.1944 21.5302 64.7597 20.5769C65.3249 19.6235 66.0516 18.8687 67.061 18.3126C68.0299 17.7565 69.0797 17.4784 70.2909 17.4784C71.5021 17.4784 72.5518 17.7565 73.5208 18.3126C74.4898 18.8687 75.2165 19.6235 75.7817 20.5769C76.3873 21.5302 76.6699 22.6028 76.6699 23.8342Z" fill="#002040"/>
<path d="M98.068 15.1347C95.5648 13.665 91.9716 13.6252 89.3069 15.0553C89.0647 15.1745 88.8224 15.3334 88.5802 15.4923V5.56134H84.6235V34.2021H88.5802V22.6028C88.5802 21.6097 88.782 20.8152 89.1858 20.1002C89.5895 19.3852 90.1547 18.829 90.9218 18.4318C91.6486 17.9948 92.4964 17.7962 93.5058 17.7962C94.9189 17.7962 96.009 18.2332 96.8568 19.0674C97.7047 19.9413 98.1084 21.133 98.1084 22.6425V34.2418H102.065V22.6425C102.065 21.0138 101.702 19.5441 101.056 18.2332C100.329 16.9223 99.3196 15.8895 98.068 15.1347Z" fill="#002040"/>
<path d="M121.606 15.0155L121.485 15.1744L121.606 15.0155C118.457 13.1883 114.258 13.1883 111.109 15.0155C109.575 15.9292 108.323 17.1606 107.394 18.6701C106.466 20.2193 106.022 21.9672 106.022 23.8739C106.022 25.7807 106.466 27.5682 107.394 29.1174C108.323 30.6667 109.534 31.9378 111.109 32.8515C112.683 33.7651 114.46 34.2418 116.398 34.2418C118.295 34.2418 120.072 33.7651 121.646 32.8515C123.181 31.9378 124.432 30.7064 125.361 29.1572C126.289 27.608 126.733 25.8204 126.733 23.8739C126.733 21.9672 126.249 20.2193 125.361 18.6701C124.392 17.1606 123.14 15.8895 121.606 15.0155ZM122.696 23.8342C122.696 25.1054 122.413 26.2573 121.848 27.2504L121.808 27.2902C121.243 28.2833 120.516 29.038 119.547 29.5941C117.649 30.7461 115.025 30.7064 113.087 29.5941C112.118 28.9983 111.351 28.2435 110.786 27.2504C110.221 26.2573 109.938 25.1451 109.938 23.8739C109.938 22.6028 110.221 21.5302 110.786 20.5769C111.351 19.6235 112.078 18.8687 113.087 18.3126C114.056 17.7565 115.106 17.4784 116.317 17.4784C117.528 17.4784 118.578 17.7565 119.547 18.3126C120.516 18.8687 121.243 19.6235 121.808 20.5769C122.454 21.5302 122.696 22.6028 122.696 23.8342Z" fill="#002040"/>
<path d="M149.464 18.6304C148.576 17.0812 147.405 15.8497 145.911 14.9361L145.871 14.8964C143.206 13.3074 139.613 13.1088 136.665 14.38C135.939 14.6978 135.293 15.095 134.647 15.5319V13.943H130.69V41.0743H134.647V32.1364C135.212 32.5734 135.858 32.9706 136.544 33.2884C139.451 34.5993 143.206 34.4007 145.911 32.772C147.445 31.8584 148.616 30.6269 149.504 29.0777C150.352 27.5285 150.796 25.7807 150.796 23.8739C150.756 21.9672 150.352 20.1796 149.464 18.6304ZM146.799 23.8342C146.799 25.1054 146.517 26.2573 145.992 27.2504C145.467 28.2435 144.74 28.9585 143.812 29.5147C141.954 30.5872 139.209 30.5872 137.473 29.5147C136.585 28.9585 135.898 28.2435 135.414 27.2902C134.889 26.2971 134.647 25.1451 134.647 23.8739C134.647 22.5233 134.929 21.3713 135.454 20.3782C135.979 19.4249 136.665 18.6701 137.554 18.114C138.442 17.5579 139.492 17.3195 140.703 17.3195C141.914 17.3195 142.964 17.5976 143.892 18.114C144.821 18.6701 145.548 19.3851 146.073 20.3782C146.517 21.4111 146.799 22.563 146.799 23.8342Z" fill="#002040"/>
<path d="M202.919 15.1347C200.416 13.665 196.822 13.6252 194.158 15.0553C193.915 15.1745 193.673 15.3334 193.431 15.4923V5.56134H189.474V34.2021H193.431V22.6028C193.431 21.6097 193.633 20.8152 194.037 20.1002C194.44 19.3852 195.006 18.829 195.773 18.4318C196.499 17.9948 197.347 17.7962 198.357 17.7962C199.77 17.7962 200.86 18.2332 201.708 19.0674C202.555 19.9413 202.959 21.133 202.959 22.6425V34.2418H206.916V22.6425C206.916 21.0138 206.553 19.5441 205.907 18.2332C205.139 16.9223 204.17 15.8895 202.919 15.1347Z" fill="#002040"/>
<path d="M46.228 17.9154C46.7529 17.5579 47.5604 17.3593 48.5697 17.3593C49.5387 17.3593 50.4269 17.5579 51.2344 17.9154C52.0015 18.2729 52.6879 18.8291 53.2531 19.5044L53.3742 19.6632L56.0793 17.0415L55.9985 16.9223C55.191 15.8498 54.1817 15.0156 52.9705 14.4595C51.7593 13.9033 50.3462 13.665 48.7716 13.665C47.2778 13.665 45.9858 13.9033 44.9361 14.38C43.846 14.8567 42.9981 15.532 42.4329 16.4456C41.8273 17.3196 41.5447 18.3921 41.5447 19.5838C41.5447 20.7755 41.8273 21.7686 42.3522 22.5234C42.877 23.2781 43.5634 23.874 44.4112 24.2712C45.2187 24.6684 46.1069 25.0259 46.9951 25.2643C47.8834 25.5026 48.7312 25.741 49.5387 26.019C50.3058 26.2574 50.9518 26.5752 51.4363 26.9724C51.8804 27.3299 52.1226 27.8066 52.1226 28.4819C52.1226 29.1175 51.84 29.5942 51.2748 29.9517C50.6692 30.3092 49.8213 30.5078 48.6908 30.5078C47.5604 30.5078 46.551 30.3092 45.6224 29.912C44.6938 29.5147 43.8864 28.8791 43.2 28.0449L43.0789 27.886L40.3738 30.5475L40.495 30.7064C41.1006 31.4612 41.8273 32.0968 42.6751 32.6529C43.523 33.209 44.4516 33.6063 45.4609 33.8843C46.4703 34.1624 47.5604 34.3213 48.6505 34.3213C50.9114 34.3213 52.7282 33.7651 54.0606 32.6926C55.4333 31.5803 56.1196 30.0708 56.1196 28.2038C56.1196 26.9724 55.837 25.9793 55.3122 25.1848C54.7873 24.4301 54.1009 23.8342 53.2935 23.3575C52.486 22.9206 51.5978 22.5631 50.7095 22.285C49.8213 22.0069 48.9735 21.7686 48.166 21.5303C47.3585 21.2919 46.7529 21.0139 46.2684 20.6563C45.8243 20.3386 45.6224 19.9016 45.6224 19.3057C45.4609 18.7099 45.7436 18.2729 46.228 17.9154Z" fill="#002040"/>
<path d="M215.112 13.665H211.397V34.2418H215.112V13.665Z" fill="#002040"/>
<path d="M213.255 5.60107C211.72 5.60107 210.509 6.83251 210.509 8.30228C210.509 9.77206 211.761 11.0035 213.255 11.0035C214.748 11.0035 216 9.77206 216 8.30228C216 6.83251 214.748 5.60107 213.255 5.60107Z" fill="#002040"/>
<path d="M23.6591 19.266V9.17619C23.6591 8.73923 23.4572 8.34199 23.0938 8.06393L12.6774 0.278091C12.1525 -0.119146 11.4662 -0.119146 10.9817 0.278091L0.565234 8.06393C0.201869 8.34199 0 8.73923 0 9.17619V19.266C0 19.703 0.201869 20.1399 0.565234 20.3783L4.19888 22.9603L0.565234 25.5821C0.201869 25.8999 0 26.2971 0 26.7341V36.8239C0 37.2608 0.201869 37.6581 0.565234 37.9361L10.9817 45.722C11.2239 45.9206 11.5469 46 11.8295 46C12.1121 46 12.4351 45.9206 12.6774 45.722L23.0938 37.9361C23.4572 37.6581 23.6591 37.2608 23.6591 36.8239V26.7341C23.6591 26.2971 23.4572 25.8601 23.0938 25.6218L19.5813 23.1192L23.1342 20.3783C23.4572 20.1002 23.6591 19.703 23.6591 19.266ZM20.8329 18.5907L17.1992 21.4111L13.2426 18.551V11.4404C13.2426 10.6857 12.5966 10.0501 11.8295 10.0501C11.0624 10.0501 10.4164 10.6857 10.4164 11.4404V19.266C10.4164 19.703 10.6183 20.1399 10.9817 20.3783L20.8329 27.4491V36.1486L11.8295 42.9016L2.82617 36.1486V27.4491L6.58093 24.7081L10.4164 27.4491V34.5596C10.4164 35.3144 11.0624 35.9499 11.8295 35.9499C12.5966 35.9499 13.2426 35.3144 13.2426 34.5596V26.7341C13.2426 26.2971 13.0407 25.8601 12.6774 25.6218L2.82617 18.551V9.89122L11.8295 3.1382L20.8329 9.89122V18.5907Z" fill="#37D988"/>
</g>
<defs>
<clipPath id="clip0_5_113">
<rect width="216" height="46" fill="white"/>
</clipPath>
</defs>
</svg>
