<svg width="96" height="40" viewBox="0 0 96 40" fill="none" xmlns="http://www.w3.org/2000/svg">
                            <path d="M0 18.8187L7.64561 0.246094H9.7621L17.3421 18.8187H14.0607L8.12141 3.77358H9.23708L3.24856 18.8187H0ZM3.77358 15.242V12.5841H13.6177V15.242H3.77358Z" fill="#141414" />
                            <path d="M19.7867 18.8187V0.246094H22.8384V18.8187H19.7867ZM21.8868 18.8187V16.0295H26.776C28.0558 16.0295 29.1715 15.7506 30.1395 15.2092C31.1075 14.6678 31.8622 13.8966 32.3872 12.9122C32.9286 11.9278 33.1911 10.7957 33.1911 9.49958C33.1911 8.21984 32.9122 7.10418 32.3708 6.13617C31.8294 5.16816 31.0582 4.39704 30.1066 3.85561C29.1386 3.31418 28.0394 3.03527 26.776 3.03527H21.8868V0.246094H26.8417C28.187 0.246094 29.434 0.47579 30.5824 0.95159C31.7309 1.42739 32.7317 2.06726 33.6013 2.92042C34.4545 3.75717 35.1272 4.74158 35.603 5.85725C36.0788 6.97292 36.3249 8.20344 36.3249 9.5324C36.3249 10.8449 36.0788 12.0591 35.603 13.1911C35.1272 14.3232 34.4545 15.3076 33.6177 16.1444C32.7646 16.9811 31.7637 17.6374 30.6153 18.1132C29.4668 18.589 28.2199 18.8187 26.9073 18.8187H21.8868Z" fill="#141414" />
                            <path d="M81.5587 18.8187V0.246094H84.6103V18.8187H81.5587ZM83.6423 10.9434V8.41673H88.3347C89.2699 8.41673 90.0082 8.17062 90.5168 7.69482C91.0418 7.20262 91.3044 6.52993 91.3044 5.66037C91.3044 4.88924 91.0418 4.23297 90.5332 3.69154C90.0246 3.16652 89.3027 2.8876 88.3511 2.8876H83.6259V0.246094H88.4824C89.6473 0.246094 90.6809 0.47579 91.5669 0.95159C92.4528 1.42739 93.1419 2.05085 93.6177 2.85479C94.1099 3.65873 94.3396 4.57751 94.3396 5.59474C94.3396 6.6776 94.0935 7.61279 93.6177 8.40032C93.1255 9.20426 92.4528 9.81131 91.5669 10.2543C90.6809 10.6973 89.6637 10.9106 88.4824 10.9106H83.6423V10.9434ZM91.7473 18.8187L85.2502 10.7465L88.0886 9.71287L95.603 18.8187H91.7473Z" fill="#141414" />
                            <path d="M0 39.7703V23.2486H2.70714V39.7703H0ZM1.87039 39.7703V37.2929H6.21821C7.35029 37.2929 8.35111 37.0468 9.20427 36.5545C10.0574 36.0623 10.7301 35.3897 11.2059 34.5201C11.6817 33.6505 11.9278 32.6333 11.9278 31.4848C11.9278 30.3527 11.6817 29.3519 11.1895 28.4824C10.6973 27.6128 10.0246 26.9401 9.17145 26.4479C8.31829 25.9557 7.33388 25.7096 6.21821 25.7096H1.87039V23.2322H6.28384C7.48154 23.2322 8.5808 23.4454 9.61444 23.8556C10.6481 24.2658 11.534 24.8564 12.2888 25.5947C13.0435 26.3495 13.6505 27.219 14.0771 28.2199C14.5037 29.2207 14.717 30.3035 14.717 31.4848C14.717 32.6497 14.5037 33.7326 14.0771 34.7334C13.6505 35.7342 13.0599 36.6202 12.3052 37.3585C11.5505 38.1132 10.6645 38.6874 9.63085 39.0976C8.61362 39.5078 7.51436 39.7211 6.33306 39.7211H1.87039V39.7703Z" fill="#141414" />
                            <path d="M17.4569 39.7703V23.2486H20.1805V39.7703H17.4569ZM19.3273 25.726V23.2486H28.4659V25.726H19.3273ZM19.3273 32.5349V30.1559H27.7769V32.5349H19.3273ZM19.3273 39.7703V37.2929H28.5808V39.7703H19.3273Z" fill="#141414" />
                            <path d="M35.5537 40C34.2412 40 33.1419 39.7703 32.2231 39.2945C31.3043 38.8187 30.5004 38.1296 29.7621 37.2108L31.5997 35.3733C32.0591 36.0295 32.6005 36.5546 33.224 36.9155C33.8474 37.2929 34.6514 37.4733 35.6358 37.4733C36.5546 37.4733 37.2765 37.2765 37.8179 36.8991C38.3593 36.5217 38.6382 35.9967 38.6382 35.3404C38.6382 34.7826 38.4906 34.3396 38.2116 33.9951C37.9327 33.6505 37.5554 33.3552 37.096 33.1419C36.6366 32.9122 36.128 32.7153 35.5701 32.5349C35.0123 32.3544 34.4545 32.1575 33.8966 31.9278C33.3388 31.6981 32.8302 31.4192 32.3708 31.0747C31.9114 30.7301 31.534 30.2871 31.2551 29.7293C30.9762 29.1715 30.8285 28.4824 30.8285 27.6292C30.8285 26.6612 31.0747 25.8244 31.5505 25.1354C32.0263 24.4463 32.6825 23.9212 33.5029 23.5603C34.3232 23.1993 35.2256 23.0189 36.2428 23.0189C37.3257 23.0189 38.2937 23.2322 39.1632 23.6587C40.0164 24.0853 40.7219 24.6267 41.2469 25.283L39.3765 27.1206C38.9007 26.5792 38.4085 26.1854 37.8999 25.9229C37.3913 25.6604 36.8007 25.5291 36.1444 25.5291C35.324 25.5291 34.6842 25.6932 34.2248 26.0213C33.7654 26.3495 33.5357 26.8089 33.5357 27.4159C33.5357 27.9245 33.6833 28.3183 33.9623 28.63C34.2412 28.9418 34.6185 29.2043 35.0779 29.4011C35.5373 29.6144 36.0459 29.8113 36.6038 30.0082C37.1616 30.2051 37.7194 30.402 38.2773 30.6481C38.8351 30.8778 39.3437 31.1895 39.8031 31.5505C40.2625 31.9278 40.6399 32.4036 40.9188 32.9779C41.1977 33.5521 41.3454 34.2904 41.3454 35.1764C41.3454 36.653 40.8203 37.8343 39.7703 38.6874C38.7531 39.5734 37.3421 40 35.5537 40Z" fill="#141414" />
                            <path d="M44.0853 39.7703V23.2486H46.7924V39.7703H44.0853Z" fill="#141414" />
                            <path d="M57.8343 40C56.7022 40 55.6358 39.7867 54.6185 39.3437C53.6177 38.9007 52.7317 38.2937 51.977 37.5226C51.2223 36.7514 50.6317 35.8326 50.1887 34.8154C49.7621 33.7818 49.5324 32.6825 49.5324 31.5012C49.5324 30.3199 49.7457 29.2207 50.1887 28.2034C50.6152 27.1862 51.2223 26.2838 51.977 25.4963C52.7481 24.7252 53.6341 24.1181 54.6678 23.6751C55.7014 23.2486 56.8171 23.0189 58.0148 23.0189C59.3273 23.0189 60.525 23.265 61.6407 23.7736C62.7564 24.2822 63.6915 24.9877 64.4463 25.9229L62.6087 27.7605C62.1165 27.0714 61.4602 26.5299 60.6563 26.169C59.8359 25.7916 58.95 25.6112 58.0148 25.6112C56.8827 25.6112 55.8819 25.8573 55.0287 26.3495C54.1755 26.8417 53.5029 27.5308 53.0271 28.4167C52.5513 29.3027 52.3216 30.3199 52.3216 31.4848C52.3216 32.6497 52.5677 33.6833 53.0435 34.5693C53.5193 35.4553 54.1755 36.1608 54.9959 36.653C55.8162 37.1616 56.735 37.4077 57.7851 37.4077C58.8843 37.4077 59.8359 37.2108 60.6235 36.8007C61.411 36.4069 62.0344 35.7998 62.4446 35.0123C62.8712 34.2248 63.0845 33.2404 63.0845 32.0755L64.7908 33.306H57.7358V30.8285H65.9065V31.2059C65.9065 33.1747 65.5619 34.8154 64.8564 36.1116C64.1509 37.4241 63.1993 38.3921 61.9852 39.032C60.7711 39.6883 59.3929 40 57.8343 40Z" fill="#141414" />
                            <path d="M68.5972 39.7703V23.2486H70.484L71.3043 26.3659V39.7703H68.5972ZM80.0328 39.7703L70.1395 26.8581L70.4676 23.2486L80.3609 36.1608L80.0328 39.7703ZM80.0328 39.7703L79.2125 36.8663V23.2486H81.9196V39.7703H80.0328Z" fill="#141414" />
                            <path d="M89.7785 40C88.4659 40 87.3667 39.7703 86.4479 39.2945C85.5291 38.8187 84.7252 38.1296 83.9869 37.2108L85.8244 35.3733C86.2838 36.0295 86.8253 36.5546 87.4487 36.9155C88.0722 37.2929 88.8761 37.4733 89.8605 37.4733C90.7793 37.4733 91.5012 37.2765 92.0426 36.8991C92.5841 36.5217 92.863 35.9967 92.863 35.3404C92.863 34.7826 92.7153 34.3396 92.4364 33.9951C92.1575 33.6505 91.7801 33.3552 91.3207 33.1419C90.8613 32.9122 90.3527 32.7153 89.7949 32.5349C89.2371 32.3544 88.6792 32.1575 88.1214 31.9278C87.5636 31.6981 87.0549 31.4192 86.5956 31.0747C86.1362 30.7301 85.7588 30.2871 85.4799 29.7293C85.201 29.1715 85.0533 28.4824 85.0533 27.6292C85.0533 26.6612 85.2994 25.8244 85.7752 25.1354C86.251 24.4463 86.9073 23.9212 87.7276 23.5603C88.548 23.1993 89.4504 23.0189 90.4676 23.0189C91.5504 23.0189 92.5184 23.2322 93.388 23.6587C94.2412 24.0853 94.9467 24.6267 95.4717 25.283L93.6341 27.1206C93.1583 26.5792 92.6661 26.1854 92.1575 25.9229C91.6489 25.6604 91.0582 25.5291 90.402 25.5291C89.5816 25.5291 88.9417 25.6932 88.4823 26.0213C88.023 26.3495 87.7933 26.8089 87.7933 27.4159C87.7933 27.9245 87.9409 28.3183 88.2198 28.63C88.4988 28.9418 88.8761 29.2043 89.3355 29.4011C89.7949 29.6144 90.3035 29.8113 90.8613 30.0082C91.4192 30.2051 91.977 30.402 92.5349 30.6481C93.0927 30.8778 93.6013 31.1895 94.0607 31.5505C94.5201 31.9278 94.8974 32.4036 95.1764 32.9779C95.4553 33.5521 95.6029 34.2904 95.6029 35.1764C95.6029 36.653 95.0779 37.8343 94.0279 38.6874C92.9778 39.5734 91.5668 40 89.7785 40Z" fill="#141414" />
                            <path d="M47.9738 19.0812C46.6448 19.0812 45.4143 18.8351 44.2658 18.3429C43.1173 17.8507 42.1001 17.1616 41.2469 16.292C40.3774 15.4225 39.7047 14.4052 39.2125 13.2404C38.7203 12.0755 38.4906 10.845 38.4906 9.516C38.4906 8.18704 38.7367 6.95652 39.2125 5.80804C39.7047 4.65956 40.3774 3.64233 41.2305 2.77276C42.0837 1.9032 43.0845 1.21411 44.233 0.721903C45.3815 0.229696 46.612 0 47.9409 0C49.2699 0 50.5004 0.246103 51.6489 0.721903C52.7974 1.21411 53.7982 1.88679 54.6678 2.77276C55.5373 3.64233 56.21 4.65956 56.7022 5.82445C57.1944 6.98933 57.4241 8.21985 57.4241 9.54881C57.4241 10.8778 57.178 12.1247 56.7022 13.2732C56.21 14.4381 55.5373 15.4389 54.6842 16.3084C53.831 17.178 52.8302 17.8507 51.6817 18.3593C50.5004 18.8351 49.2699 19.0812 47.9738 19.0812ZM47.9081 16.1608C49.1715 16.1608 50.2707 15.8819 51.2059 15.3076C52.1575 14.7498 52.8958 13.9623 53.4372 12.9614C53.9787 11.9606 54.2412 10.8121 54.2412 9.49959C54.2412 8.53158 54.0935 7.64561 53.7818 6.82527C53.4701 6.02133 53.0271 5.31583 52.4692 4.72518C51.895 4.13454 51.2387 3.67514 50.4676 3.36341C49.6965 3.05168 48.8433 2.88761 47.9081 2.88761C46.6776 2.88761 45.5783 3.16653 44.6267 3.72436C43.6751 4.2822 42.9368 5.05332 42.3954 6.03774C41.854 7.02215 41.5915 8.17063 41.5915 9.48318C41.5915 10.4512 41.7391 11.3536 42.0509 12.1739C42.3626 12.9943 42.7892 13.6998 43.347 14.2904C43.9048 14.881 44.5775 15.324 45.3486 15.6522C46.1526 15.9967 46.9893 16.1608 47.9081 16.1608Z" fill="#141414" />
                            <path d="M69.0238 19.0812C67.6948 19.0812 66.4643 18.8351 65.3158 18.3429C64.1674 17.8507 63.1501 17.1616 62.297 16.292C61.4274 15.4225 60.7547 14.4052 60.2625 13.2404C59.7703 12.0755 59.5406 10.845 59.5406 9.516C59.5406 8.18704 59.7867 6.95652 60.2625 5.80804C60.7547 4.65956 61.4274 3.64233 62.2806 2.77276C63.1337 1.9032 64.1345 1.21411 65.283 0.721903C66.4315 0.229696 67.662 0 68.991 0C70.3199 0 71.534 0.229696 72.6825 0.705496C73.831 1.1977 74.8318 1.87039 75.7014 2.75636C76.571 3.62592 77.2436 4.64315 77.7359 5.80804C78.2281 6.97293 78.4578 8.20344 78.4578 9.5324C78.4578 10.8614 78.2117 12.1083 77.7359 13.2568C77.2436 14.4217 76.571 15.4225 75.7178 16.292C74.8646 17.1616 73.8638 17.8343 72.7153 18.3429C71.5669 18.8351 70.3363 19.0812 69.0238 19.0812ZM68.9746 16.1608C70.2379 16.1608 71.3372 15.8819 72.2724 15.3076C73.224 14.7498 73.9623 13.9623 74.5037 12.9614C75.0451 11.9606 75.3076 10.8121 75.3076 9.49959C75.3076 8.53158 75.16 7.64561 74.8482 6.82527C74.5365 6.02133 74.0935 5.31583 73.5357 4.72518C72.9614 4.13454 72.3052 3.67514 71.534 3.36341C70.7629 3.05168 69.9098 2.88761 68.9746 2.88761C67.7441 2.88761 66.6448 3.16653 65.6932 3.72436C64.7416 4.2822 64.0197 5.06973 63.4783 6.05414C62.9368 7.03856 62.6743 8.18704 62.6743 9.49959C62.6743 10.4676 62.822 11.37 63.1337 12.1903C63.4454 13.0107 63.872 13.7162 64.4299 14.3068C64.9877 14.8975 65.6604 15.3404 66.4315 15.6686C67.2026 15.9967 68.0558 16.1608 68.9746 16.1608Z" fill="#141414" />
                            <path d="M50.1395 9.53239C50.1395 9.84412 50.0902 10.1394 49.9754 10.402C49.8605 10.6645 49.7129 10.9106 49.4996 11.1075C49.3027 11.3043 49.073 11.4684 48.7941 11.5833C48.5316 11.6981 48.2363 11.7637 47.9409 11.7637C47.6292 11.7637 47.3339 11.6981 47.0714 11.5833C46.8089 11.4684 46.5628 11.3043 46.3659 11.1075C46.169 10.9106 46.0049 10.6645 45.8901 10.402C45.7752 10.1394 45.726 9.84412 45.726 9.53239C45.726 9.22066 45.7752 8.92533 45.8901 8.66282C46.0049 8.40031 46.1526 8.15421 46.3659 7.95733C46.5628 7.76044 46.7925 7.59638 47.0714 7.48153C47.3339 7.36668 47.6292 7.31746 47.9409 7.31746C48.2527 7.31746 48.548 7.36668 48.8105 7.48153C49.073 7.59638 49.3027 7.74404 49.516 7.95733C49.7129 8.15421 49.877 8.40031 49.9918 8.66282C50.0738 8.94174 50.1395 9.22066 50.1395 9.53239Z" fill="#141414" />
                            <path d="M65.0533 10.6645C65.0533 10.4348 65.1025 10.2215 65.1682 10.0082C65.2338 9.7949 65.3322 9.59802 65.4307 9.40114C65.5455 9.20426 65.6768 9.02378 65.8244 8.8433C65.9065 8.76127 65.9721 8.67923 66.0541 8.5972C66.1362 8.51517 66.2346 8.44954 66.3167 8.3675C66.6776 8.07218 67.1206 7.84248 67.58 7.71123C68.0394 7.57997 68.5316 7.51435 69.0074 7.53075C69.4832 7.54716 69.959 7.66201 70.3856 7.82608C70.8121 8.00655 71.2059 8.23625 71.5505 8.51517C71.895 8.79408 72.1903 9.12222 72.4364 9.48317C72.5513 9.66365 72.6661 9.86053 72.7482 10.0574C72.8302 10.2543 72.9122 10.4676 72.945 10.6973C72.5185 10.566 72.1411 10.4512 71.7637 10.3363C71.4028 10.2215 71.0582 10.123 70.7301 10.041C70.402 9.95897 70.0902 9.89334 69.7785 9.84412C69.4832 9.7949 69.1879 9.76209 68.8925 9.74568C68.5972 9.72928 68.3183 9.74568 68.0394 9.76209C67.7441 9.7785 67.4651 9.84412 67.1534 9.90975C66.8417 9.97538 66.5135 10.0738 66.169 10.2051C65.808 10.3199 65.4635 10.4676 65.0533 10.6645Z" fill="#141414" />
                        </svg>